<svg width="776" height="310" viewBox="0 0 776 310" fill="none" xmlns="http://www.w3.org/2000/svg">
<path d="M85.6974 194.087H46.56L36.4383 212.283H0L65.4539 109.848H99.193L123.485 212.283H89.0713L85.6974 194.087ZM80.9739 169.152L76.2504 142.87L60.7304 169.152H80.9739Z" fill="white"/>
<path d="M133.607 168.478C133.607 132.761 160.598 107.152 198.386 107.152C217.955 107.152 234.15 114.565 241.572 127.37L216.605 146.913C211.882 139.5 205.134 134.783 196.362 134.783C180.167 134.783 168.696 147.587 168.696 165.783C168.696 177.913 176.793 186 189.614 186C197.711 186 205.134 182.63 212.557 173.87L232.8 193.413C220.654 208.913 205.134 213.63 186.24 213.63C154.525 214.304 133.607 196.109 133.607 168.478Z" fill="white"/>
<path d="M358.31 109.848L338.066 212.283H303.652L311.075 174.544H279.36L271.937 212.283H237.523L257.767 109.848H292.181L284.758 146.239H316.473L323.896 109.848H358.31Z" fill="white"/>
<path d="M459.527 178.587H442.657L446.031 163.761H499.339L495.965 178.587H479.095L470.323 221.044H450.755L459.527 178.587Z" fill="white"/>
<path d="M504.063 163.761H523.631L512.16 221.718H492.591L504.063 163.761Z" fill="white"/>
<path d="M583.012 182.631C583.012 197.457 571.541 206.891 553.996 206.891H543.875L541.176 221.044H521.607L533.078 163.087H558.72C574.24 163.761 583.012 170.5 583.012 182.631ZM563.443 184.652C563.443 180.609 560.744 178.587 556.021 178.587H549.273L546.574 192.065H554.671C560.069 192.065 563.443 189.37 563.443 184.652Z" fill="white"/>
<path d="M621.474 210.935H599.207L593.134 221.044H572.89L610.003 163.087H628.897L642.393 221.044H622.824L621.474 210.935ZM618.101 197.457L615.401 182.631L607.304 197.457H618.101Z" fill="white"/>
<path d="M657.238 163.761H676.807L668.034 206.218H694.351L690.977 221.044H645.767L657.238 163.761Z" fill="white"/>
<path d="M711.895 178.587H695.026L698.4 163.761H751.708L748.334 178.587H731.464L722.692 221.044H703.123L711.895 178.587Z" fill="white"/>
<path d="M756.431 163.761H776L764.529 221.718H744.96L756.431 163.761Z" fill="white"/>
<path d="M503.388 78.174L475.722 122.652H462.226L452.104 78.174H464.925L471.673 108.5L490.567 78.174H503.388Z" fill="white"/>
<path d="M508.112 78.1739H520.932L512.16 122.652H499.339L508.112 78.1739ZM509.461 65.3696C509.461 61.3261 512.835 57.9565 518.233 57.9565C522.957 57.9565 525.656 60.6522 525.656 64.6957C525.656 69.4131 522.282 72.7826 516.884 72.7826C512.16 72.1087 509.461 69.4131 509.461 65.3696Z" fill="white"/>
<path d="M578.289 78.174L569.517 122.652H557.371L558.045 118.609C554.671 121.978 549.948 123.326 544.55 123.326C534.428 123.326 525.656 115.913 525.656 103.783C525.656 88.9566 536.452 78.174 549.948 78.174C556.696 78.174 561.419 80.1957 564.118 84.9131L565.468 78.8479H578.289V78.174ZM561.419 98.3913C561.419 92.3261 557.371 88.2826 551.297 88.2826C543.875 88.2826 538.477 94.3479 538.477 103.109C538.477 109.174 541.851 113.217 548.598 113.217C556.021 112.544 561.419 107.152 561.419 98.3913Z" fill="white"/>
<path d="M407.569 66.7174H398.122V250.696H407.569V66.7174Z" fill="white"/>
</svg>
