<svg width="86" height="104" viewBox="0 0 86 104" fill="none" xmlns="http://www.w3.org/2000/svg">
  <path d="M11.6602 84.2137C11.6602 83.8559 11.9502 83.5659 12.308 83.5659H21.3771C21.7349 83.5659 22.0249 83.8559 22.0249 84.2137V102.041C22.0249 102.5 21.5613 102.814 21.1356 102.643L17.0841 101.015C16.9291 100.952 16.756 100.952 16.601 101.015L12.5495 102.643C12.1238 102.814 11.6602 102.5 11.6602 102.041V84.2137Z" fill="url(#paint0_linear_1320_12535)"/>
  <path d="M11.9342 84.2137C11.9342 84.0073 12.1015 83.84 12.308 83.84H21.3771C21.5835 83.84 21.7509 84.0073 21.7509 84.2137V102.041C21.7509 102.306 21.4834 102.487 21.2378 102.388L17.1862 100.76C16.9657 100.672 16.7194 100.672 16.4989 100.76L12.4473 102.388C12.2017 102.487 11.9342 102.306 11.9342 102.041V84.2137Z" stroke="url(#paint1_linear_1320_12535)" stroke-opacity="0.6" stroke-width="0.548138"/>
  <path d="M0 3.28883C0 1.47246 1.47246 0 3.28883 0H80.0281C83.0553 0 85.5094 2.4541 85.5094 5.48138V90.9908C85.5094 94.0181 83.0553 96.4722 80.0281 96.4722H3.28883C1.47246 96.4722 0 94.9997 0 93.1833V3.28883Z" fill="url(#paint2_linear_1320_12535)"/>
  <path d="M0.274069 3.28883C0.274069 1.62383 1.62382 0.274069 3.28883 0.274069H80.0281C82.904 0.274069 85.2354 2.60546 85.2354 5.48138V90.9908C85.2354 93.8667 82.904 96.1981 80.0281 96.1981H3.28883C1.62383 96.1981 0.274069 94.8484 0.274069 93.1833V3.28883Z" stroke="url(#paint3_linear_1320_12535)" stroke-opacity="0.6" stroke-width="0.548138"/>
  <path opacity="0.23" d="M19.9279 83.7358L17.9716 79.2012H19.1052L20.8154 83.2176H20.1482L21.8843 79.2012H22.9273L20.9644 83.7358H19.9279ZM24.0115 83.7358V79.5899L24.4649 80.0434H23.1045V79.2012H25.0609V83.7358H24.0115ZM26.4446 83.7877C26.2719 83.7877 26.1229 83.7294 25.9976 83.6128C25.8767 83.4918 25.8162 83.3385 25.8162 83.1528C25.8162 82.9671 25.8767 82.8181 25.9976 82.7058C26.1229 82.5892 26.2719 82.5309 26.4446 82.5309C26.6217 82.5309 26.7707 82.5892 26.8916 82.7058C27.0125 82.8181 27.073 82.9671 27.073 83.1528C27.073 83.3385 27.0125 83.4918 26.8916 83.6128C26.7707 83.7294 26.6217 83.7877 26.4446 83.7877ZM29.4052 83.8136C29.0338 83.8136 28.7013 83.7229 28.4076 83.5415C28.1139 83.3558 27.8829 83.088 27.7144 82.7382C27.546 82.3884 27.4618 81.9652 27.4618 81.4685C27.4618 80.9719 27.546 80.5487 27.7144 80.1989C27.8829 79.849 28.1139 79.5834 28.4076 79.4021C28.7013 79.2164 29.0338 79.1235 29.4052 79.1235C29.7809 79.1235 30.1135 79.2164 30.4028 79.4021C30.6965 79.5834 30.9275 79.849 31.0959 80.1989C31.2644 80.5487 31.3486 80.9719 31.3486 81.4685C31.3486 81.9652 31.2644 82.3884 31.0959 82.7382C30.9275 83.088 30.6965 83.3558 30.4028 83.5415C30.1135 83.7229 29.7809 83.8136 29.4052 83.8136ZM29.4052 82.9261C29.5823 82.9261 29.7356 82.8764 29.8651 82.7771C29.999 82.6778 30.1027 82.5201 30.1761 82.3042C30.2538 82.0883 30.2927 81.8097 30.2927 81.4685C30.2927 81.1274 30.2538 80.8488 30.1761 80.6329C30.1027 80.417 29.999 80.2593 29.8651 80.16C29.7356 80.0607 29.5823 80.011 29.4052 80.011C29.2324 80.011 29.0791 80.0607 28.9453 80.16C28.8157 80.2593 28.7121 80.417 28.6343 80.6329C28.5609 80.8488 28.5242 81.1274 28.5242 81.4685C28.5242 81.8097 28.5609 82.0883 28.6343 82.3042C28.7121 82.5201 28.8157 82.6778 28.9453 82.7771C29.0791 82.8764 29.2324 82.9261 29.4052 82.9261ZM32.3722 83.7877C32.1995 83.7877 32.0505 83.7294 31.9252 83.6128C31.8043 83.4918 31.7439 83.3385 31.7439 83.1528C31.7439 82.9671 31.8043 82.8181 31.9252 82.7058C32.0505 82.5892 32.1995 82.5309 32.3722 82.5309C32.5493 82.5309 32.6983 82.5892 32.8192 82.7058C32.9401 82.8181 33.0006 82.9671 33.0006 83.1528C33.0006 83.3385 32.9401 83.4918 32.8192 83.6128C32.6983 83.7294 32.5493 83.7877 32.3722 83.7877ZM35.3328 83.8136C34.9614 83.8136 34.6289 83.7229 34.3352 83.5415C34.0415 83.3558 33.8105 83.088 33.6421 82.7382C33.4736 82.3884 33.3894 81.9652 33.3894 81.4685C33.3894 80.9719 33.4736 80.5487 33.6421 80.1989C33.8105 79.849 34.0415 79.5834 34.3352 79.4021C34.6289 79.2164 34.9614 79.1235 35.3328 79.1235C35.7085 79.1235 36.0411 79.2164 36.3304 79.4021C36.6241 79.5834 36.8551 79.849 37.0236 80.1989C37.192 80.5487 37.2762 80.9719 37.2762 81.4685C37.2762 81.9652 37.192 82.3884 37.0236 82.7382C36.8551 83.088 36.6241 83.3558 36.3304 83.5415C36.0411 83.7229 35.7085 83.8136 35.3328 83.8136ZM35.3328 82.9261C35.5099 82.9261 35.6632 82.8764 35.7927 82.7771C35.9266 82.6778 36.0303 82.5201 36.1037 82.3042C36.1814 82.0883 36.2203 81.8097 36.2203 81.4685C36.2203 81.1274 36.1814 80.8488 36.1037 80.6329C36.0303 80.417 35.9266 80.2593 35.7927 80.16C35.6632 80.0607 35.5099 80.011 35.3328 80.011C35.1601 80.011 35.0067 80.0607 34.8729 80.16C34.7433 80.2593 34.6397 80.417 34.5619 80.6329C34.4885 80.8488 34.4518 81.1274 34.4518 81.4685C34.4518 81.8097 34.4885 82.0883 34.5619 82.3042C34.6397 82.5201 34.7433 82.6778 34.8729 82.7771C35.0067 82.8764 35.1601 82.9261 35.3328 82.9261ZM37.8893 82.3172V81.5074H39.7226V82.3172H37.8893ZM42.8104 83.8136C42.452 83.8136 42.1194 83.7553 41.8128 83.6387C41.5105 83.5221 41.2471 83.358 41.0225 83.1463C40.8023 82.9347 40.6295 82.6864 40.5043 82.4014C40.3833 82.1163 40.3229 81.8054 40.3229 81.4685C40.3229 81.1317 40.3833 80.8207 40.5043 80.5357C40.6295 80.2507 40.8044 80.0024 41.029 79.7907C41.2536 79.5791 41.517 79.415 41.8193 79.2984C42.1216 79.1818 42.4498 79.1235 42.804 79.1235C43.1624 79.1235 43.4906 79.1818 43.7886 79.2984C44.0909 79.415 44.3522 79.5791 44.5724 79.7907C44.797 80.0024 44.9719 80.2507 45.0972 80.5357C45.2224 80.8164 45.285 81.1274 45.285 81.4685C45.285 81.8054 45.2224 82.1185 45.0972 82.4079C44.9719 82.6929 44.797 82.9412 44.5724 83.1528C44.3522 83.3601 44.0909 83.5221 43.7886 83.6387C43.4906 83.7553 43.1646 83.8136 42.8104 83.8136ZM42.804 82.9196C43.0069 82.9196 43.1926 82.8851 43.3611 82.816C43.5338 82.7469 43.685 82.6475 43.8145 82.518C43.9441 82.3884 44.0434 82.2351 44.1125 82.058C44.1859 81.881 44.2226 81.6845 44.2226 81.4685C44.2226 81.2526 44.1859 81.0561 44.1125 80.879C44.0434 80.702 43.9441 80.5487 43.8145 80.4191C43.6893 80.2896 43.5403 80.1902 43.3675 80.1211C43.1948 80.052 43.0069 80.0175 42.804 80.0175C42.601 80.0175 42.4131 80.052 42.2404 80.1211C42.0719 80.1902 41.9229 80.2896 41.7934 80.4191C41.6638 80.5487 41.5623 80.702 41.4889 80.879C41.4198 81.0561 41.3853 81.2526 41.3853 81.4685C41.3853 81.6802 41.4198 81.8767 41.4889 82.058C41.5623 82.2351 41.6617 82.3884 41.7869 82.518C41.9165 82.6475 42.0676 82.7469 42.2404 82.816C42.4131 82.8851 42.601 82.9196 42.804 82.9196ZM45.4145 83.7358L47.4356 79.2012H48.4721L50.4997 83.7358H49.3984L47.7401 79.7324H48.1547L46.4898 83.7358H45.4145ZM46.425 82.7641L46.7036 81.9673H49.0357L49.3207 82.7641H46.425ZM52.4601 83.8136C52.0973 83.8136 51.7497 83.7661 51.4171 83.6711C51.0846 83.5717 50.8169 83.4443 50.6139 83.2889L50.9702 82.4985C51.1645 82.6367 51.3934 82.7512 51.6568 82.8419C51.9246 82.9283 52.1945 82.9714 52.4666 82.9714C52.6739 82.9714 52.8401 82.952 52.9654 82.9131C53.0949 82.8699 53.19 82.8116 53.2504 82.7382C53.3109 82.6648 53.3411 82.5806 53.3411 82.4856C53.3411 82.3647 53.2936 82.2697 53.1986 82.2006C53.1036 82.1271 52.9783 82.0688 52.8229 82.0257C52.6674 81.9781 52.4947 81.935 52.3046 81.8961C52.1189 81.8529 51.9311 81.8011 51.741 81.7406C51.5553 81.6802 51.3848 81.6024 51.2293 81.5074C51.0738 81.4124 50.9464 81.2872 50.8471 81.1317C50.7521 80.9762 50.7046 80.7776 50.7046 80.5357C50.7046 80.2766 50.7737 80.0412 50.9119 79.8296C51.0544 79.6137 51.266 79.4431 51.5467 79.3179C51.8317 79.1883 52.188 79.1235 52.6156 79.1235C52.9006 79.1235 53.1813 79.1581 53.4577 79.2272C53.7341 79.2919 53.9781 79.3913 54.1897 79.5251L53.8658 80.3219C53.6542 80.201 53.4426 80.1125 53.231 80.0563C53.0194 79.9959 52.8121 79.9657 52.6091 79.9657C52.4061 79.9657 52.2398 79.9894 52.1103 80.0369C51.9807 80.0844 51.8879 80.147 51.8317 80.2248C51.7756 80.2982 51.7475 80.3846 51.7475 80.4839C51.7475 80.6005 51.795 80.6955 51.89 80.7689C51.985 80.838 52.1103 80.8942 52.2658 80.9373C52.4212 80.9805 52.5918 81.0237 52.7775 81.0669C52.9675 81.1101 53.1554 81.1598 53.3411 81.2159C53.5311 81.272 53.7039 81.3476 53.8593 81.4426C54.0148 81.5376 54.1401 81.6629 54.2351 81.8184C54.3344 81.9738 54.3841 82.1703 54.3841 82.4079C54.3841 82.6627 54.3128 82.8959 54.1703 83.1075C54.0278 83.3191 53.814 83.4897 53.529 83.6192C53.2483 83.7488 52.892 83.8136 52.4601 83.8136ZM56.2676 83.8136C55.9524 83.8136 55.6393 83.7725 55.3283 83.6905C55.0174 83.6041 54.7539 83.4832 54.538 83.3277L54.9461 82.5245C55.1189 82.6497 55.3197 82.749 55.5486 82.8224C55.7775 82.8959 56.0085 82.9326 56.2417 82.9326C56.5052 82.9326 56.7125 82.8807 56.8636 82.7771C57.0148 82.6734 57.0903 82.5309 57.0903 82.3496C57.0903 82.1768 57.0234 82.0408 56.8895 81.9414C56.7556 81.8421 56.5397 81.7924 56.2417 81.7924H55.7624V81.0993L57.0256 79.6677L57.1422 80.0434H54.7647V79.2012H57.939V79.8814L56.6822 81.3131L56.151 81.0086H56.4555C57.0126 81.0086 57.4337 81.1338 57.7187 81.3843C58.0037 81.6348 58.1463 81.9566 58.1463 82.3496C58.1463 82.6044 58.0793 82.844 57.9454 83.0686C57.8116 83.2889 57.6064 83.4681 57.33 83.6063C57.0536 83.7445 56.6995 83.8136 56.2676 83.8136Z" fill="white"/>
  <path opacity="0.45" d="M8.77148 0.54834H9.86776V95.9242H8.77148V0.54834Z" fill="#151515"/>
  <path fill-rule="evenodd" clip-rule="evenodd" d="M20.1316 11.624C19.4883 11.624 18.9668 12.1455 18.9668 12.7888V31.4255C18.9668 32.0688 19.4883 32.5903 20.1316 32.5903H43.4274C44.0707 32.5903 44.5922 32.0688 44.5922 31.4255V12.7888C44.5922 12.1455 44.0707 11.624 43.4274 11.624H20.1316ZM28.2689 21.7744H25.5402L25.0197 23.2719H23.626L26.2455 16.2832H27.5888L30.2167 23.2719H28.7894L28.2689 21.7744ZM27.8407 20.5463L26.9087 17.8706L25.9768 20.5463H27.8407ZM34.21 16.2832C34.7305 16.2832 35.1811 16.3864 35.5617 16.5927C35.948 16.799 36.2446 17.0919 36.4517 17.4713C36.6587 17.8507 36.7623 18.2999 36.7623 18.8191C36.7623 19.3316 36.6587 19.7809 36.4517 20.167C36.2446 20.5463 35.948 20.8392 35.5617 21.0456C35.1811 21.2452 34.7305 21.345 34.21 21.345H33.0262V23.2719H31.6661V16.2832H34.21ZM34.1344 20.0272C34.543 20.0272 34.8536 19.924 35.0663 19.7177C35.279 19.5047 35.3854 19.2052 35.3854 18.8191C35.3854 18.4264 35.279 18.1269 35.0663 17.9206C34.8536 17.7076 34.543 17.6011 34.1344 17.6011H33.0262V20.0272H34.1344ZM39.9331 16.2832H38.5729V23.2719H39.9331V16.2832ZM23.626 26.7663H25.9555V29.0959H23.626V26.7663ZM30.6147 26.7663H28.2851V29.0959H30.6147V26.7663ZM32.9443 26.7663H35.2739V29.0959H32.9443V26.7663ZM39.9331 26.7663H37.6035V29.0959H39.9331V26.7663Z" fill="#C8C8C8"/>
  <defs>
    <linearGradient id="paint0_linear_1320_12535" x1="14.7829" y1="92.3112" x2="10.8574" y2="102.478" gradientUnits="userSpaceOnUse">
      <stop stop-color="#359559"/>
      <stop offset="1" stop-color="#54DD87"/>
    </linearGradient>
    <linearGradient id="paint1_linear_1320_12535" x1="16.8425" y1="80.0325" x2="16.8425" y2="103" gradientUnits="userSpaceOnUse">
      <stop stop-color="#AFAFAF"/>
      <stop offset="1" stop-opacity="0.54"/>
    </linearGradient>
    <linearGradient id="paint2_linear_1320_12535" x1="81.6725" y1="-27.955" x2="25.7625" y2="101.405" gradientUnits="userSpaceOnUse">
      <stop stop-color="#606060"/>
      <stop offset="1" stop-color="#1F1F1F"/>
    </linearGradient>
    <linearGradient id="paint3_linear_1320_12535" x1="42.7547" y1="-17.5404" x2="42.7547" y2="96.4722" gradientUnits="userSpaceOnUse">
      <stop stop-color="#AFAFAF"/>
      <stop offset="1" stop-opacity="0.54"/>
    </linearGradient>
  </defs>
</svg>
