<svg width="203" height="62" viewBox="0 0 203 62" fill="none" xmlns="http://www.w3.org/2000/svg">
<rect y="0.0351562" width="202.535" height="61.4971" rx="12" fill="#181819"/>
<path d="M38.972 12.0352C39.1542 13.9986 38.4253 15.9621 37.423 17.4088C36.4207 18.8556 34.6894 19.889 33.0493 19.7856C32.776 17.9255 33.6871 15.8587 34.5983 14.6186C35.6917 13.1719 37.5141 12.1385 38.972 12.0352Z" fill="white"/>
<path d="M45.0377 23.008C44.5124 23.371 41.6945 25.3179 41.6945 29.0009C41.7759 33.0637 44.7057 34.8265 45.6849 35.4158C45.8819 35.5343 46 35.6054 46 35.6381C46 35.7357 45.315 37.883 43.7494 40.1279C42.3794 42.0801 41.0095 44.0322 38.8567 44.0322C37.8147 44.0322 37.1166 43.7349 36.3962 43.4281C35.6282 43.1011 34.8349 42.7633 33.5726 42.7633C32.2582 42.7633 31.424 43.1014 30.6147 43.4295C29.9178 43.712 29.2394 43.987 28.2886 44.0322C26.2336 44.1298 24.668 41.9825 23.298 40.0303C20.656 36.0285 18.5032 28.8056 21.341 23.9253C22.7109 21.4852 25.2551 19.9235 27.8971 19.9235C29.0756 19.8675 30.2218 20.3251 31.2251 20.7257C31.9714 21.0236 32.6386 21.29 33.1812 21.29C33.6252 21.29 34.2511 21.0388 34.9902 20.7422C36.2055 20.2544 37.7268 19.6438 39.2481 19.8259C40.3245 19.8259 43.2601 20.2163 45.1193 22.9493C45.1115 22.9571 45.0832 22.9766 45.0377 23.008Z" fill="white"/>
<path d="M78.1 29.1658H80.8L74.8 12.4406H72L66 29.1658H68.6L70.1 24.7057H76.4L78.1 29.1658ZM73.4 15.4816H73.6L76 22.5771H71L73.4 15.4816ZM88.1 16.3938C86.4 16.3938 84.9 17.2047 84.2 18.7252H84V16.5966H81.6V33.3217H84.1V27.3412H84.3C85 28.6589 86.4 29.4699 88.1 29.4699C91.3 29.4699 93.3 26.9357 93.3 22.9825C93.3 19.0293 91.3 16.3938 88.1 16.3938ZM87.4 27.1385C85.3 27.1385 84 25.5166 84 22.8812C84 20.2457 85.3 18.6238 87.4 18.6238C89.5 18.6238 90.7 20.2457 90.7 22.8812C90.8 25.5166 89.5 27.1385 87.4 27.1385ZM100.9 16.3938C99.2 16.3938 97.7 17.2047 97 18.7252H96.8V16.5966H94.4V33.3217H96.9V27.3412H97.1C97.8 28.6589 99.2 29.4699 100.9 29.4699C104.1 29.4699 106.1 26.9357 106.1 22.9825C106.1 19.0293 104.1 16.3938 100.9 16.3938ZM100.2 27.1385C98.1 27.1385 96.8 25.5166 96.8 22.8812C96.8 20.2457 98.1 18.6238 100.2 18.6238C102.3 18.6238 103.5 20.2457 103.5 22.8812C103.5 25.5166 102.3 27.1385 100.2 27.1385ZM111.3 24.7057C111.5 27.7467 113.9 29.5712 117.6 29.5712C121.5 29.5712 124 27.5439 124 24.4016C124 21.8675 122.6 20.4484 119.2 19.6375L117.4 19.232C115.2 18.7252 114.4 18.0157 114.4 16.7993C114.4 15.2788 115.8 14.2652 117.8 14.2652C119.7 14.2652 121.1 15.2788 121.3 16.7993H123.8C123.7 13.9611 121.2 12.0352 117.8 12.0352C114.2 12.0352 111.8 14.0624 111.8 17.002C111.8 19.4348 113.2 20.9552 116.2 21.6648L118.3 22.1716C120.5 22.6784 121.5 23.4893 121.5 24.7057C121.5 26.2262 120 27.2398 117.9 27.2398C115.7 27.2398 114.2 26.2262 113.9 24.6044H111.3V24.7057ZM126.1 13.4543V16.5966H124V18.7252H126.1V25.8207C126.1 28.2535 127.2 29.2671 129.9 29.2671C130.4 29.2671 130.8 29.1658 131.2 29.1658V27.0371C130.9 27.0371 130.7 27.1385 130.3 27.1385C129.1 27.1385 128.5 26.5303 128.5 25.2125V18.7252H131.3V16.5966H128.5V13.4543H126.1ZM137.4 27.2398C135.3 27.2398 134.1 25.618 134.1 22.8812C134.1 20.1443 135.3 18.5225 137.4 18.5225C139.5 18.5225 140.7 20.1443 140.7 22.8812C140.8 25.618 139.6 27.2398 137.4 27.2398ZM137.4 29.4699C141 29.4699 143.3 27.0371 143.3 22.8812C143.3 18.8266 141.1 16.2925 137.4 16.2925C133.8 16.2925 131.5 18.8266 131.5 22.8812C131.6 26.9357 133.8 29.4699 137.4 29.4699ZM144.4 29.1658H146.9V21.6648C146.9 19.8402 148.2 18.7252 150.1 18.7252C150.5 18.7252 151.3 18.8266 151.5 18.8266V16.3938C151.2 16.2925 150.8 16.2925 150.4 16.2925C148.8 16.2925 147.4 17.2047 147 18.4211H146.8V16.4952H144.4V29.1658ZM157 18.4211C158.8 18.4211 160 19.7389 160.1 21.6648H153.8C153.9 19.7389 155.2 18.4211 157 18.4211ZM160 25.8207C159.5 26.8344 158.5 27.3412 157 27.3412C155 27.3412 153.8 25.9221 153.7 23.6921V23.5907H162.5V22.6784C162.5 18.7252 160.4 16.2925 156.9 16.2925C153.4 16.2925 151.1 18.8266 151.1 22.8812C151.1 26.9357 153.3 29.3685 156.9 29.3685C159.8 29.3685 161.7 27.9494 162.3 25.7194H160V25.8207Z" fill="white"/>
<path d="M66 41.7267V49.3291H68.7C70.9 49.3291 72.2 47.91 72.2 45.4772C72.2 43.0445 70.9 41.7267 68.7 41.7267H66ZM67.1 42.8418H68.5C70.1 42.8418 71 43.8554 71 45.5786C71 47.3018 70.1 48.3154 68.5 48.3154H67.1V42.8418ZM76.3 48.4168C75.3 48.4168 74.8 47.7073 74.8 46.4909C74.8 45.2745 75.3 44.565 76.3 44.565C77.3 44.565 77.8 45.2745 77.8 46.4909C77.8 47.7073 77.3 48.4168 76.3 48.4168ZM76.3 49.4304C77.9 49.4304 79 48.3154 79 46.4909C79 44.6663 78 43.5513 76.3 43.5513C74.7 43.5513 73.6 44.6663 73.6 46.4909C73.6 48.3154 74.6 49.4304 76.3 49.4304ZM87.7 43.5513H86.6L85.6 47.91H85.5L84.3 43.5513H83.3L82.1 47.91H82L81 43.5513H79.9L81.5 49.3291H82.6L83.8 45.0718H83.9L85.1 49.3291H86.3L87.7 43.5513ZM89.1 49.3291H90.2V45.9841C90.2 45.0718 90.7 44.565 91.6 44.565C92.4 44.565 92.8 45.0718 92.8 45.9841V49.4304H93.9V45.5786C93.9 44.2609 93.2 43.4499 91.9 43.4499C91 43.4499 90.4 43.8554 90.1 44.4636H90V43.5513H88.9V49.3291H89.1ZM95.9 49.3291H97V41.3213H95.9V49.3291ZM101.3 48.4168C100.3 48.4168 99.8 47.7073 99.8 46.4909C99.8 45.2745 100.3 44.565 101.3 44.565C102.3 44.565 102.8 45.2745 102.8 46.4909C102.9 47.7073 102.3 48.4168 101.3 48.4168ZM101.3 49.4304C102.9 49.4304 104 48.3154 104 46.4909C104 44.6663 103 43.5513 101.3 43.5513C99.7 43.5513 98.6 44.6663 98.6 46.4909C98.7 48.3154 99.7 49.4304 101.3 49.4304ZM107.5 48.4168C106.9 48.4168 106.5 48.1127 106.5 47.6059C106.5 47.0991 106.9 46.795 107.6 46.795L109 46.6936V47.2004C108.9 47.91 108.3 48.4168 107.5 48.4168ZM107.2 49.4304C107.9 49.4304 108.6 49.1264 108.9 48.5182H109V49.3291H110.1V45.3759C110.1 44.1595 109.3 43.4499 107.9 43.4499C106.6 43.4499 105.7 44.0581 105.6 45.0718H106.7C106.8 44.6663 107.3 44.4636 107.9 44.4636C108.7 44.4636 109.1 44.7677 109.1 45.3759V45.8827L107.6 45.9841C106.3 46.0854 105.5 46.6936 105.5 47.7073C105.3 48.7209 106.1 49.4304 107.2 49.4304ZM114 49.4304C114.8 49.4304 115.4 49.025 115.8 48.4168H115.9V49.3291H117V41.3213H115.9V44.4636H115.8C115.5 43.8554 114.8 43.4499 114.1 43.4499C112.7 43.4499 111.8 44.565 111.8 46.3895C111.6 48.2141 112.5 49.4304 114 49.4304ZM114.3 44.4636C115.2 44.4636 115.8 45.1731 115.8 46.3895C115.8 47.6059 115.2 48.3154 114.3 48.3154C113.4 48.3154 112.8 47.6059 112.8 46.3895C112.8 45.2745 113.3 44.4636 114.3 44.4636ZM124.4 48.4168C123.4 48.4168 122.9 47.7073 122.9 46.4909C122.9 45.2745 123.4 44.565 124.4 44.565C125.4 44.565 125.9 45.2745 125.9 46.4909C125.9 47.7073 125.3 48.4168 124.4 48.4168ZM124.4 49.4304C126 49.4304 127.1 48.3154 127.1 46.4909C127.1 44.6663 126.1 43.5513 124.4 43.5513C122.8 43.5513 121.7 44.6663 121.7 46.4909C121.7 48.3154 122.7 49.4304 124.4 49.4304ZM128.6 49.3291H129.7V45.9841C129.7 45.0718 130.2 44.565 131.1 44.565C131.9 44.565 132.3 45.0718 132.3 45.9841V49.4304H133.4V45.5786C133.4 44.2609 132.7 43.4499 131.4 43.4499C130.5 43.4499 129.9 43.8554 129.6 44.4636H129.5V43.5513H128.4V49.3291H128.6ZM139 42.2336V43.6527H138.1V44.565H139V47.8086C139 48.9236 139.5 49.3291 140.7 49.3291C140.9 49.3291 141.1 49.3291 141.3 49.2277V48.3154C141.1 48.3154 141.1 48.3154 140.9 48.3154C140.3 48.3154 140.1 48.0113 140.1 47.4032V44.565H141.4V43.6527H140.1V42.2336H139ZM142.9 49.3291H144V45.9841C144 45.0718 144.6 44.565 145.5 44.565C146.3 44.565 146.8 45.0718 146.8 45.9841V49.4304H147.9V45.5786C147.9 44.2609 147.2 43.4499 145.9 43.4499C145 43.4499 144.4 43.8554 144.1 44.4636H144V41.3213H142.9V49.3291ZM152.1 44.4636C152.9 44.4636 153.5 45.0718 153.5 45.9841H150.6C150.7 45.0718 151.2 44.4636 152.1 44.4636ZM153.4 47.8086C153.2 48.2141 152.7 48.5182 152.1 48.5182C151.2 48.5182 150.6 47.91 150.6 46.8963V46.795H154.6V46.3895C154.6 44.565 153.7 43.5513 152.1 43.5513C150.5 43.5513 149.5 44.6663 149.5 46.5922C149.5 48.5182 150.5 49.5318 152.1 49.5318C153.4 49.5318 154.3 48.9236 154.5 47.91H153.4V47.8086Z" fill="white"/>
</svg>
