<svg width="49" height="48" viewBox="0 0 49 48" fill="none" xmlns="http://www.w3.org/2000/svg">
  <path d="M36.666 6C39.98 6 42.666 8.686 42.666 12C42.666 15.314 39.98 18 36.666 18H30.666C28.054 18 25.832 16.332 25.008 14H22.666C20.466 14 18.666 15.8 18.666 18V18.342C20.998 19.166 22.666 21.388 22.666 24C22.666 26.612 20.998 28.834 18.666 29.658V30C18.666 32.2 20.466 34 22.666 34H25.006C25.83 31.67 28.054 30 30.666 30H36.666C39.98 30 42.666 32.686 42.666 36C42.666 39.314 39.98 42 36.666 42H30.666C28.054 42 25.832 40.332 25.008 38H22.666C18.246 38 14.666 34.42 14.666 30H10.666C7.35202 30 4.66602 27.314 4.66602 24C4.66602 20.686 7.35202 18 10.666 18H14.666C14.666 13.58 18.246 10 22.666 10H25.006C25.83 7.67 28.054 6 30.666 6H36.666ZM36.666 34H30.666C29.562 34 28.666 34.896 28.666 36C28.666 37.104 29.562 38 30.666 38H36.666C37.77 38 38.666 37.104 38.666 36C38.666 34.896 37.77 34 36.666 34ZM16.666 22H10.666C9.56202 22 8.66602 22.896 8.66602 24C8.66602 25.104 9.56202 26 10.666 26H16.666C17.77 26 18.666 25.104 18.666 24C18.666 22.896 17.77 22 16.666 22ZM36.666 10H30.666C29.562 10 28.666 10.896 28.666 12C28.666 13.104 29.562 14 30.666 14H36.666C37.77 14 38.666 13.104 38.666 12C38.666 10.896 37.77 10 36.666 10Z" fill="white"/>
  <path d="M25.4795 13.8334L25.3616 13.5H25.008H22.666C20.1899 13.5 18.166 15.5239 18.166 18V18.342V18.6956L18.4994 18.8134C20.6378 19.569 22.166 21.6064 22.166 24C22.166 26.3936 20.6378 28.431 18.4994 29.1866L18.166 29.3044V29.658V30C18.166 32.4761 20.1899 34.5 22.666 34.5H25.006H25.3595L25.4774 34.1667C26.233 32.0302 28.2724 30.5 30.666 30.5H36.666C39.7039 30.5 42.166 32.9621 42.166 36C42.166 39.0379 39.7039 41.5 36.666 41.5H30.666C28.2724 41.5 26.235 39.9718 25.4795 37.8334L25.3616 37.5H25.008H22.666C18.5222 37.5 15.166 34.1439 15.166 30V29.5H14.666H10.666C7.62816 29.5 5.16602 27.0379 5.16602 24C5.16602 20.9621 7.62816 18.5 10.666 18.5H14.666H15.166V18C15.166 13.8561 18.5222 10.5 22.666 10.5H25.006H25.3595L25.4774 10.1667C26.233 8.03023 28.2724 6.5 30.666 6.5H36.666C39.7039 6.5 42.166 8.96214 42.166 12C42.166 15.0379 39.7039 17.5 36.666 17.5H30.666C28.2724 17.5 26.235 15.9718 25.4795 13.8334ZM36.666 33.5H30.666C29.2859 33.5 28.166 34.6199 28.166 36C28.166 37.3801 29.2859 38.5 30.666 38.5H36.666C38.0462 38.5 39.166 37.3801 39.166 36C39.166 34.6199 38.0462 33.5 36.666 33.5ZM16.666 21.5H10.666C9.28587 21.5 8.16602 22.6199 8.16602 24C8.16602 25.3801 9.28587 26.5 10.666 26.5H16.666C18.0462 26.5 19.166 25.3801 19.166 24C19.166 22.6199 18.0462 21.5 16.666 21.5ZM36.666 9.5H30.666C29.2859 9.5 28.166 10.6199 28.166 12C28.166 13.3801 29.2859 14.5 30.666 14.5H36.666C38.0462 14.5 39.166 13.3801 39.166 12C39.166 10.6199 38.0462 9.5 36.666 9.5Z" stroke="url(#paint0_linear_1434_36852)" stroke-opacity="0.27"/>
  <defs>
    <linearGradient id="paint0_linear_1434_36852" x1="23.666" y1="4.30532" x2="23.666" y2="42" gradientUnits="userSpaceOnUse">
      <stop stop-color="white"/>
      <stop offset="1" stop-color="white" stop-opacity="0"/>
    </linearGradient>
  </defs>
</svg>
