<svg width="101" height="100" viewBox="0 0 101 100" fill="none" xmlns="http://www.w3.org/2000/svg">
<rect width="100.415" height="100" rx="2" fill="#35373A"/>
<path d="M50.5399 50C56.0878 50 60.5814 45.525 60.5814 40C60.5814 34.475 56.0878 30 50.5399 30C44.992 30 40.4985 34.475 40.4985 40C40.4985 45.525 44.992 50 50.5399 50ZM50.5399 55C43.8373 55 30.457 58.35 30.457 65V66C30.457 68.2091 32.2479 70 34.457 70H66.6228C68.832 70 70.6228 68.2091 70.6228 66V65C70.6228 58.35 57.2426 55 50.5399 55Z" fill="#2A2C2E"/>
</svg>
