<svg width="776" height="310" viewBox="0 0 776 310" fill="none" xmlns="http://www.w3.org/2000/svg">
<path d="M483.874 278.62C471.364 278.62 466.361 271.425 468.462 259.533L474.067 228.053H462.758L464.96 215.761H476.268L479.671 196.273H494.582L491.18 215.761H506.792L504.59 228.053H488.978L483.674 258.233C482.873 263.03 484.675 265.029 489.378 265.029C492.681 265.029 495.883 264.829 499.186 264.429L496.984 276.921C492.681 278.021 488.378 278.52 483.874 278.62Z" fill="white"/>
<path d="M505.191 277.421L516.099 215.661H531.211L520.302 277.421H505.191Z" fill="white"/>
<path d="M706.746 278.62C694.237 278.62 689.233 271.425 691.335 259.533L696.939 228.053H685.53L687.732 215.761H699.04L702.443 196.273H717.355L713.952 215.761H729.564L727.362 228.053H711.75L706.446 258.233C705.646 263.03 707.447 265.029 712.151 265.029C715.453 265.029 718.656 264.829 721.958 264.429L719.757 276.921C715.553 278.021 711.15 278.52 706.746 278.62Z" fill="white"/>
<path d="M727.963 277.421L738.871 215.661H753.983L743.075 277.421H727.963Z" fill="white"/>
<path d="M575.345 274.223C570.942 277.321 565.637 279.22 559.333 279.22C551.927 279.22 546.523 276.622 544.221 273.124L539.217 301.206H524.406L539.417 215.961H553.328L552.027 222.756C556.73 217.06 564.036 214.562 570.841 214.562C577.046 214.562 581.65 216.66 584.852 219.758C591.157 225.754 593.159 235.048 591.157 246.641C589.056 258.733 583.751 268.127 575.345 274.223ZM574.845 231.75C573.143 229.052 570.341 226.854 565.737 226.854C554.128 226.854 549.725 237.847 548.224 246.841C546.723 255.835 547.123 266.628 558.732 266.628C563.336 266.628 566.938 264.529 569.54 261.731C573.343 257.734 575.145 252.137 576.146 246.741C577.146 241.344 577.246 235.748 574.845 231.75Z" fill="white"/>
<path d="M640.295 278.52C633.89 278.52 630.988 274.523 631.388 269.826C627.685 274.823 619.779 279.12 610.972 279.12C596.261 279.12 590.256 269.826 592.058 259.732C594.159 247.94 604.467 241.244 616.377 240.345L634.791 239.046L635.491 235.248C636.492 229.452 635.191 225.554 626.785 225.554C619.879 225.554 615.276 228.652 613.975 234.349H599.463C602.766 220.458 614.875 214.262 628.686 214.262C639.294 214.262 647.701 217.56 649.602 226.854C650.503 230.751 649.902 235.148 649.202 239.346L645.199 262.231C644.698 265.129 645.499 266.128 648.001 266.128C648.702 266.128 649.302 266.028 649.902 265.928L648.001 276.821C645.299 277.921 643.898 278.52 640.295 278.52ZM632.889 250.139L616.977 251.338C612.373 251.738 607.47 254.436 606.669 259.433C605.868 264.23 609.471 267.128 614.075 267.128C623.382 267.128 630.788 262.131 632.389 253.037L632.889 250.139Z" fill="white"/>
<path d="M671.319 278.22C661.211 278.22 655.307 273.324 657.408 261.631L668.917 196.173H683.929L672.82 259.133C672.22 262.73 672.62 265.029 677.724 265.029C679.025 265.029 679.425 264.929 680.226 264.929L678.024 277.421C674.922 278.021 674.321 278.22 671.319 278.22Z" fill="white"/>
<path d="M758.887 186.18C759.087 192.676 753.983 198.172 747.478 198.372C745.376 198.472 743.275 197.972 741.373 196.973C741.173 196.873 740.973 196.773 740.773 196.573C709.549 178.285 673.02 168.291 634.19 169.591C594.359 170.89 557.731 183.881 527.408 205.168C527.208 205.268 527.107 205.368 526.907 205.467C526.607 205.567 526.307 205.667 526.007 205.667C524.806 205.667 523.805 204.768 523.805 203.569C523.805 203.169 523.905 202.769 524.105 202.469C524.505 202.17 524.806 201.87 525.206 201.47C558.532 171.689 602.065 153.001 650.303 151.402C687.131 150.203 721.858 159.097 751.981 175.587L752.782 176.086C754.083 176.786 755.184 177.685 756.085 178.785C757.786 180.883 758.787 183.482 758.887 186.18Z" fill="#FFBC00"/>
<path d="M355.775 231.051L325.952 277.421H319.547L308.038 231.051H314.343L323.95 270.625L349.27 231.051H355.775Z" fill="white"/>
<path d="M364.582 231.051H370.887L361.68 277.421H355.375L364.582 231.051ZM366.083 216.76C366.083 214.162 368.085 211.963 370.987 211.963C373.489 211.963 375.29 213.862 375.29 215.961C375.29 218.759 373.189 220.858 370.386 220.858C367.884 220.957 366.083 218.959 366.083 216.76Z" fill="white"/>
<path d="M430.733 231.051L421.426 277.421H415.421L416.922 270.126C412.519 275.023 406.314 277.921 398.808 277.921C386.899 277.921 378.593 270.525 378.593 258.233C378.593 242.344 389.701 230.751 404.813 230.751C413.62 230.751 419.824 234.349 422.426 240.845L424.328 231.151H430.733V231.051ZM420.325 250.638C420.325 241.544 414.72 236.148 405.013 236.148C393.404 236.148 384.897 245.342 384.897 257.934C384.897 267.028 390.502 272.324 400.209 272.324C411.718 272.324 420.325 263.23 420.325 250.638Z" fill="white"/>
<path d="M293.627 74.8517C293.627 40.274 318.646 13.3914 356.676 13.3914C374.189 13.3914 388.4 19.3875 395.606 30.4803L381.795 41.9729C376.191 34.2779 367.484 29.9807 355.375 29.9807C329.154 29.9807 312.842 49.6679 312.842 73.6525C312.842 90.5416 323.95 101.834 344.867 101.834C356.275 101.834 366.183 98.0367 373.989 90.0419L385.098 102.034C375.19 113.427 360.379 118.524 343.466 118.524C312.141 118.524 293.627 100.735 293.627 74.8517Z" fill="#8DD294"/>
<path d="M482.473 64.6583C482.473 67.4565 482.073 70.6544 481.472 73.8524L472.866 117.024H454.551L463.058 74.2521C463.458 72.0535 463.658 70.0548 463.658 68.256C463.658 59.1618 458.655 54.0651 448.046 54.0651C434.736 54.0651 425.529 61.3604 422.427 76.5506L414.22 117.024H395.906L417.623 8.69439H435.937L428.331 46.7698C435.336 40.7737 444.243 38.1754 454.051 38.1754C471.064 38.1754 482.473 47.4694 482.473 64.6583Z" fill="#8DD294"/>
<path d="M577.446 83.4462H515.398C515.699 95.8382 522.904 102.534 537.916 102.534C546.823 102.534 555.029 99.6357 560.433 94.539L568.039 107.231C559.833 114.526 548.024 118.024 536.014 118.024C512.496 118.024 497.585 104.433 497.585 83.746C497.585 57.363 516.399 38.1754 542.62 38.1754C564.236 38.1754 578.547 51.0671 578.547 72.3533C578.547 76.3507 578.147 80.1483 577.446 83.4462ZM517 71.354H561.734C561.834 59.3617 553.828 52.766 541.719 52.766C529.309 52.8659 520.402 59.9613 517 71.354Z" fill="#8DD294"/>
<path d="M588.055 83.746C588.055 57.5629 607.37 38.1754 634.891 38.1754C650.703 38.1754 662.212 44.2714 668.517 56.4636L652.905 64.4584C649.202 57.1631 642.697 53.6654 633.49 53.6654C617.978 53.6654 606.569 65.6576 606.569 82.8465C606.569 94.9387 614.075 102.434 627.285 102.434C635.892 102.434 643.498 99.0361 648.602 91.6409L662.012 100.735C654.706 111.728 641.296 118.124 626.284 118.124C602.966 118.124 588.055 104.333 588.055 83.746Z" fill="#8DD294"/>
<path d="M724.96 72.5532L752.482 117.124H731.265L710.349 83.3462L693.936 96.4378L689.833 117.024H671.519L693.236 8.69439H711.55L698.64 73.3527L741.473 39.0748H766.292L724.96 72.5532Z" fill="#8DD294"/>
<path d="M188.846 230.451C188.846 226.154 192.549 222.756 202.757 222.756C210.262 222.756 218.369 224.955 226.575 229.352L234.081 211.364C227.176 207.266 218.269 204.868 209.162 204.168V190.877H194.45V204.368C174.535 206.867 164.827 218.259 164.827 231.75C164.827 263.63 213.765 253.736 213.765 267.328C213.765 271.525 209.862 274.323 199.754 274.323C189.847 274.323 179.038 270.925 171.332 265.829L163.326 283.717C170.432 288.614 182.141 292.211 194.45 293.011V306.103H209.162V292.511C228.376 289.713 237.684 278.42 237.684 265.429C237.684 233.749 188.846 243.543 188.846 230.451Z" fill="#8DD294"/>
<path d="M226.875 3.89748C224.674 13.991 215.667 21.4861 204.958 21.4861C194.25 21.4861 185.243 13.891 183.042 3.89748H174.435C172.233 13.991 163.226 21.4861 152.518 21.4861C141.81 21.4861 132.803 13.891 130.601 3.89748H122.094C119.893 13.991 110.886 21.4861 100.177 21.4861C89.4692 21.4861 80.3621 13.891 78.1604 3.89748H69.5538C67.3521 13.991 58.3451 21.4861 47.6368 21.4861C36.9285 21.4861 27.9216 13.891 25.7199 3.89748H12.0093V258.833H25.7199C27.9216 248.74 36.9285 241.244 47.6368 241.244C58.3451 241.244 67.3521 248.839 69.5538 258.833H78.1604C80.3621 248.74 89.3691 241.244 100.077 241.244C110.786 241.244 119.793 248.839 121.994 258.833H130.601C131.802 253.436 134.904 248.839 139.108 245.642C138.807 243.143 138.607 240.545 138.607 237.847C138.607 220.258 145.513 204.268 156.721 192.376H47.6368V171.589H204.958C218.069 171.589 230.378 175.387 240.586 181.983V3.89748H226.875ZM204.958 141.709H47.7369V120.922H205.059V141.709H204.958ZM204.958 91.0413H47.7369V70.2547H205.059V91.0413H204.958Z" fill="#8DD294"/>
</svg>
