<svg width="28" height="28" viewBox="0 0 28 28" fill="none" xmlns="http://www.w3.org/2000/svg">
  <path d="M13.4678 3.91654L13.2152 4.3423C12.9445 4.3423 12.2443 4.18681 11.5369 4.89764C10.8295 5.60847 10.0992 7.26708 9.82254 8.00752H9.1007L8.2345 10.525C8.18036 10.6299 8.09013 10.8508 8.16232 10.8953C8.2345 10.9397 8.66159 11.1976 8.86611 11.321L8.48714 12.4872L7.9999 12.913L7.33221 14.653H6.88106L6.77278 14.7456C6.71504 15.6934 6.48405 17.584 6.37577 18.4108C5.76221 18.7996 5.1667 19.54 4.84187 20.2064C4.58201 20.7395 3.48242 23.1559 2.9651 24.2974L2.92901 24.464L3.09142 24.7416L3.03729 25.26L2.3335 26.5557L2.49591 26.8334H4.39073C4.53509 26.8334 4.67946 26.7594 4.69751 26.5002C4.71194 26.2929 4.76368 25.4759 4.78774 25.0934L4.75165 24.9268C5.94267 23.5323 8.41496 20.5914 8.77588 19.9843C9.22703 19.2253 10.4361 16.245 10.5624 15.9488C10.6887 15.6526 11.0136 15.6526 11.1038 15.8007C11.194 15.9488 11.5189 16.4671 11.8798 17.041C12.1685 17.5001 12.7941 18.2812 13.0708 18.6144L13.5219 18.8736V18.9662L12.4392 20.9098L11.4828 25.0378L11.3384 25.371L11.176 26.6853H14.0633C14.1536 26.6853 14.4351 26.6668 14.8393 26.5928C15.3446 26.5002 15.4529 26.0559 15.4529 25.9634C15.4529 25.8893 15.3686 25.8462 15.3265 25.8338L14.0272 25.4081L13.5761 24.7972V24.7231L14.2979 23.9827C14.8934 22.5388 16.1133 19.5807 16.2288 19.2994C16.3732 18.9476 16.3552 18.2627 16.2288 17.9665C16.1278 17.7296 14.7551 15.2516 14.0814 14.0422L13.8287 13.7645L13.7385 12.4502L14.1896 12.4132L15.4348 10.0067L15.128 9.63651L15.5792 9.09968C15.7717 9.21692 16.2469 9.49582 16.6078 9.67353C16.9687 9.85124 17.5763 9.52544 17.8349 9.34033L18.3402 8.11859H18.3943L18.5567 8.84053L20.0546 8.4703L19.7117 7.08196V6.91536L19.8921 6.69323L20.0906 5.8232H24.0968V5.02722H25.6668V4.61997H24.0968V3.99059H23.9525L23.6457 4.43486H16.7883L16.7522 4.12017L17.2033 4.19422L17.492 3.0095L17.1672 2.89843C17.0228 2.41714 16.4995 1.30646 15.0558 1.17689C13.6122 1.04731 12.9625 2.195 12.9806 2.62076C12.995 2.96136 13.0227 3.50313 13.0347 3.73143L13.4678 3.91654Z" fill="#0D0E0E"/>
</svg>
