<svg xmlns="http://www.w3.org/2000/svg" fill="none" viewBox="0 0 49 48">
  <path fill="#fff" d="M10.334 25c0 .626.922 1.716 3.06 2.786C16.162 29.17 20.088 30 24.334 30c4.246 0 8.172-.83 10.94-2.214 2.138-1.07 3.06-2.16 3.06-2.786v-4.342c-3.3 2.04-8.346 3.342-14 3.342s-10.7-1.304-14-3.342V25Zm28 5.658c-3.3 2.04-8.346 3.342-14 3.342s-10.7-1.304-14-3.342V35c0 .626.922 1.716 3.06 2.786C16.162 39.17 20.088 40 24.334 40c4.246 0 8.172-.83 10.94-2.214 2.138-1.07 3.06-2.16 3.06-2.786v-4.342ZM6.334 35V15c0-4.97 8.06-9 18-9s18 4.03 18 9v20c0 4.97-8.06 9-18 9s-18-4.03-18-9Zm18-15c4.246 0 8.172-.83 10.94-2.214 2.138-1.07 3.06-2.16 3.06-2.786 0-.626-.922-1.716-3.06-2.786C32.506 10.83 28.58 10 24.334 10c-4.246 0-8.172.83-10.94 2.214-2.138 1.07-3.06 2.16-3.06 2.786 0 .626.922 1.716 3.06 2.786C16.162 19.17 20.088 20 24.334 20Z"/>
  <path stroke="url(#a)" stroke-opacity=".27" d="M13.17 28.233c2.855 1.427 6.862 2.267 11.164 2.267s8.309-.84 11.164-2.267c1.1-.55 1.912-1.118 2.457-1.648.52-.506.879-1.06.879-1.585v-5.239l-.763.472c-3.2 1.978-8.148 3.267-13.737 3.267s-10.537-1.29-13.737-3.267l-.763-.471V25c0 .525.36 1.079.88 1.585.544.53 1.356 1.097 2.456 1.648Zm25.664 2.425v-.897l-.763.472c-3.2 1.978-8.148 3.267-13.737 3.267s-10.537-1.29-13.737-3.267l-.763-.471V35c0 .525.36 1.079.88 1.585.544.53 1.356 1.097 2.456 1.648 2.855 1.428 6.862 2.267 11.164 2.267s8.309-.84 11.164-2.267c1.1-.55 1.912-1.118 2.457-1.648.52-.506.879-1.06.879-1.585v-4.342Zm-3.336-12.425c1.1-.55 1.912-1.118 2.457-1.648.52-.506.879-1.06.879-1.585 0-.525-.36-1.079-.88-1.585-.544-.53-1.356-1.097-2.456-1.648C32.643 10.339 28.636 9.5 24.334 9.5s-8.31.84-11.164 2.267c-1.1.55-1.912 1.118-2.457 1.648-.52.506-.879 1.06-.879 1.585 0 .525.36 1.079.88 1.585.544.53 1.356 1.097 2.456 1.648 2.855 1.427 6.862 2.267 11.164 2.267s8.309-.84 11.164-2.267ZM6.834 35V15c0-2.194 1.792-4.314 4.996-5.917C15.005 7.496 19.425 6.5 24.334 6.5c4.91 0 9.33.996 12.504 2.583 3.204 1.603 4.996 3.723 4.996 5.917v20c0 2.194-1.792 4.314-4.996 5.916-3.175 1.588-7.595 2.584-12.504 2.584-4.91 0-9.33-.996-12.504-2.584C8.626 39.315 6.834 37.194 6.834 35Z"/>
  <defs>
    <linearGradient id="a" x1="24.334" x2="24.334" y1="4.211" y2="44" gradientUnits="userSpaceOnUse">
      <stop stop-color="#fff"/>
      <stop offset="1" stop-color="#fff" stop-opacity="0"/>
    </linearGradient>
  </defs>
</svg>