<svg xmlns="http://www.w3.org/2000/svg" fill="none" viewBox="0 0 48 48">
  <path fill="currentColor" d="M18.049 23.038c1.798 0 3.254 1.429 3.221 3.175 0 1.746-1.42 3.174-3.221 3.174-1.768 0-3.224-1.428-3.224-3.174s1.423-3.175 3.224-3.175Zm11.53 0c1.801 0 3.225 1.429 3.225 3.175 0 1.746-1.424 3.174-3.225 3.174-1.767 0-3.22-1.428-3.22-3.174s1.42-3.175 3.22-3.175ZM32.568 38c6.81-.232 9.432-5.067 9.432-5.067C42 22.2 37.56 13.5 37.56 13.5 33.123 9.902 28.9 10 28.9 10l-.432.534c5.24 1.733 7.674 4.234 7.674 4.234a23.804 23.804 0 0 0-9.277-3.2 24.129 24.129 0 0 0-6.224.064c-.186 0-.342.035-.524.067-1.08.101-3.701.533-6.997 2.101-1.139.565-1.82.968-1.82.968s2.56-2.634 8.106-4.368l-.308-.4s-4.222-.098-8.66 3.502c0 0-4.438 8.698-4.438 19.431 0 0 2.589 4.832 9.4 5.067 0 0 1.139-1.498 2.068-2.765-3.917-1.27-5.394-3.936-5.394-3.936s.306.234.86.568c.03.031.06.066.123.098.093.07.186.102.278.168.77.467 1.54.832 2.248 1.134a24.535 24.535 0 0 0 4.533 1.435 19.99 19.99 0 0 0 7.983.031 19.154 19.154 0 0 0 4.468-1.431c1.079-.435 2.28-1.07 3.545-1.969 0 0-1.54 2.734-5.58 3.969A137.158 137.158 0 0 0 32.57 38h-.003Z"/>
</svg>