<svg width="28" height="28" viewBox="0 0 28 28" fill="none" xmlns="http://www.w3.org/2000/svg">
  <path d="M24.2577 13.0641L19.0923 4.39839C18.9252 4.1305 18.6916 3.90785 18.4131 3.75087C18.1346 3.5939 17.8202 3.50763 17.4986 3.5H7.2446C6.90471 3.50908 6.57338 3.60596 6.28449 3.78075H6.30369C6.04194 3.9328 5.82909 4.15324 5.68922 4.41711L3.769 7.69249C3.63058 7.92233 3.55761 8.184 3.55761 8.45051C3.55761 8.71702 3.63058 8.97869 3.769 9.20853L6.09247 13.1203C6.24283 13.3896 6.31581 13.6935 6.30369 13.9999C6.3053 14.3135 6.22607 14.6224 6.07327 14.8983L3.7114 18.7914C3.57298 19.0212 3.5 19.2829 3.5 19.5494C3.5 19.8159 3.57298 20.0776 3.7114 20.3074L5.63162 23.5828C5.77759 23.8424 5.98908 24.0614 6.24609 24.2191H6.30369C6.59258 24.3939 6.92391 24.4908 7.2638 24.4999H17.5562C17.8801 24.5033 18.199 24.4217 18.4794 24.2637C18.7598 24.1056 18.9914 23.8769 19.15 23.6015L24.2385 14.9171C24.4065 14.6364 24.4965 14.318 24.4999 13.9931C24.5033 13.6682 24.4198 13.348 24.2577 13.0641ZM18.1898 14.9358L16.0776 18.5293C15.9104 18.7972 15.6769 19.0199 15.3984 19.1769C15.1199 19.3338 14.8054 19.4201 14.4838 19.4277H10.2593C9.99413 19.4239 9.7326 19.3665 9.49125 19.2593L12.0643 14.9171C12.2329 14.6325 12.3216 14.3098 12.3216 13.9812C12.3216 13.6527 12.2329 13.3299 12.0643 13.0454L9.47205 8.75933C9.68372 8.66386 9.91147 8.60678 10.1441 8.59088H14.407C14.7309 8.58745 15.0498 8.66905 15.3303 8.82712C15.6107 8.98519 15.8423 9.21391 16.0008 9.48927L18.1322 13.0641C18.2958 13.3348 18.3868 13.6413 18.3968 13.9553C18.4069 14.2693 18.3357 14.5808 18.1898 14.8609V14.9358Z" fill="#0D0E0E"/>
</svg>
