<svg width="28" height="28" viewBox="0 0 28 28" fill="none" xmlns="http://www.w3.org/2000/svg">
  <path d="M23.3337 9.00174C23.2606 5.52757 23.2561 6.27854 23.3272 5.19575C23.3315 5.13155 23.2832 5.07608 23.2194 5.07169C18.0738 4.71784 17.8788 4.67704 17.4801 4.67704C10.4605 4.67647 14.1458 4.56115 4.77614 5.11683C4.71247 5.12065 4.66382 5.17537 4.66715 5.23933C5.27101 16.8871 5.24896 14.987 4.94049 22.7499C4.93828 22.8057 4.97567 22.8552 5.02972 22.868C5.73097 23.0347 5.60669 22.9691 7.24251 22.9703C7.24518 22.9711 10.308 22.6348 10.3108 22.6345C10.3253 22.6369 14.5462 23.3334 14.5609 23.3334C14.5641 23.3334 14.5673 23.3333 14.5706 23.333C19.5174 22.9162 18.0995 23.0169 21.2909 22.8391L23.1649 23.2202C23.2378 23.2349 23.3047 23.1782 23.3039 23.1046C23.2633 19.3114 23.3337 9.00174 23.3337 9.00174ZM15.7268 8.72524C15.7407 8.72185 15.7606 8.71694 15.7855 8.71029L17.1193 8.40809C17.8026 8.23597 17.9035 8.19404 18.4882 7.91768C18.7581 8.01183 19.4983 8.4236 19.686 8.66001C19.81 8.81652 19.8018 8.85133 19.7628 9.01891C19.7553 9.05108 19.7467 9.08811 19.7377 9.13183C19.7371 9.13471 19.7366 9.13768 19.7362 9.14061L19.4429 11.4483C19.1527 11.459 19.1284 11.4367 19.0482 11.3624C19.0151 11.3316 18.9738 11.2934 18.9011 11.2444C18.4598 10.9466 17.0154 9.87214 16.5593 9.50229L15.6628 8.77807L15.67 8.77105C15.6797 8.76133 15.6883 8.74826 15.6941 8.73576C15.6986 8.73223 15.7163 8.72784 15.7268 8.72524ZM17.8053 20.3442C17.7791 20.3178 6.59694 8.3996 6.58873 8.38313L7.56566 7.62967L21.2177 16.7181C21.1049 17.0431 21.0598 17.4161 20.992 17.7259C20.7522 18.8198 20.4437 19.2985 19.9614 20.3379C19.2711 20.3655 17.8529 20.3602 17.8053 20.3442ZM7.63322 17.1197C7.75891 16.816 7.9317 16.3274 8.07695 16.0799C8.79101 16.5286 11.5804 19.3463 11.823 19.7268C11.6887 19.7769 11.1115 19.8632 10.1526 20.2483C9.54504 20.492 8.97135 20.7231 8.41723 20.5341C8.36196 20.5154 8.21465 20.3896 7.99621 20.2001C7.59724 19.8538 7.23594 19.6043 7.02585 19.4797C6.6675 19.267 6.72333 19.3119 7.63322 17.1197Z" fill="#0D0E0E"/>
</svg>
