<svg width="203" height="62" viewBox="0 0 203 62" fill="none" xmlns="http://www.w3.org/2000/svg">
<rect y="0.532227" width="202.535" height="60.5933" rx="12" fill="#181819"/>
<path fill-rule="evenodd" clip-rule="evenodd" d="M21.7 44.0061C21.8 44.0061 21.9 43.9048 22 43.8034L37.7 35.1874L34 31.4369L21.7 44.0061ZM38.4 34.782L34.5 30.8288L38.4 26.8755L43.7 29.8151C45 30.5247 44.3 31.4369 43.7 31.8424L38.4 34.782ZM37.7 26.5714L22.1 17.8541C21.9 17.7527 21.7 17.7527 21.6 17.6514L34.1 30.3219L37.7 26.5714ZM20.6 17.8541L33.5 30.9301L20.7 44.0061C20.3 43.8034 20.1 43.1952 20.1 42.587C20.1 41.2693 20 20.7937 20 19.2732C20 18.5636 20.2 18.0568 20.6 17.8541Z" fill="white"/>
<path d="M69.0355 16.1813H72.7355C72.7355 16.1813 72.8355 16.4854 72.7355 16.8909C72.7355 19.1209 71.2355 20.6414 69.0355 20.6414C66.6355 20.6414 64.9355 18.6141 64.9355 16.5868C64.9355 14.4582 66.7355 12.5322 69.0355 12.5322C70.8355 12.5322 71.8355 13.6472 71.8355 13.6472L71.0355 14.4582C71.0355 14.4582 70.2355 13.6472 69.0355 13.6472C67.4355 13.6472 66.1355 14.8636 66.1355 16.5868C66.1355 18.31 67.5355 19.5264 69.0355 19.5264C70.2355 19.5264 71.5355 18.8168 71.6355 17.2964H69.0355V16.1813Z" fill="white"/>
<path d="M81.5355 34.1236H73.4355V36.5564H79.2355C78.9355 40.0028 76.1355 41.4219 73.4355 41.4219C70.0355 41.4219 67.0355 38.685 67.0355 34.9345C67.0355 31.2854 69.8355 28.3458 73.4355 28.3458C76.1355 28.3458 77.7355 30.069 77.7355 30.069L79.4355 28.3458C79.4355 28.3458 77.2355 25.9131 73.3355 25.9131C68.3355 25.9131 64.4355 30.1704 64.4355 34.8332C64.4355 39.3946 68.1355 43.8546 73.4355 43.8546C78.1355 43.8546 81.6355 40.6109 81.6355 35.7454C81.7355 34.7318 81.5355 34.1236 81.5355 34.1236Z" fill="white"/>
<path fill-rule="evenodd" clip-rule="evenodd" d="M88.4363 32.4004C85.1363 32.4004 82.7363 35.0359 82.7363 38.0768C82.7363 41.2191 85.0363 43.8546 88.5363 43.8546C91.6363 43.8546 94.2363 41.4218 94.2363 38.0768C94.1363 34.3263 91.2363 32.4004 88.4363 32.4004ZM88.5363 34.6304C90.1363 34.6304 91.7363 35.9481 91.7363 38.1782C91.7363 40.3068 90.2363 41.7259 88.5363 41.7259C86.7363 41.7259 85.3363 40.2055 85.3363 38.1782C85.2363 36.1509 86.6363 34.6304 88.5363 34.6304Z" fill="white"/>
<path fill-rule="evenodd" clip-rule="evenodd" d="M95.3359 38.0768C95.3359 35.0359 97.7359 32.4004 101.036 32.4004C103.736 32.4004 106.736 34.3263 106.836 38.0768C106.836 41.4218 104.236 43.8546 101.136 43.8546C97.6359 43.8546 95.3359 41.2191 95.3359 38.0768ZM104.236 38.1782C104.236 35.9481 102.636 34.6304 101.036 34.6304C99.2359 34.6304 97.8359 36.1509 97.8359 38.1782C97.8359 40.2055 99.2359 41.7259 101.036 41.7259C102.736 41.7259 104.236 40.3068 104.236 38.1782Z" fill="white"/>
<path fill-rule="evenodd" clip-rule="evenodd" d="M113.336 32.4004C110.236 32.4004 107.836 35.1372 107.836 38.1782C107.836 41.6246 110.636 43.9559 113.236 43.9559C114.836 43.9559 115.736 43.3478 116.336 42.5368V43.6519C116.336 45.6791 115.136 46.7942 113.336 46.7942C111.636 46.7942 110.736 45.4764 110.436 44.7669L108.236 45.6791C109.036 47.301 110.536 49.0242 113.336 49.0242C116.336 49.0242 118.736 47.0982 118.736 43.0437V32.7045H116.336V33.7181C115.636 32.9072 114.636 32.4004 113.336 32.4004ZM113.536 34.6304C115.036 34.6304 116.536 35.9481 116.536 38.1782C116.536 40.4082 115.036 41.6246 113.436 41.6246C111.836 41.6246 110.336 40.3068 110.336 38.1782C110.436 35.9481 111.936 34.6304 113.536 34.6304Z" fill="white"/>
<path fill-rule="evenodd" clip-rule="evenodd" d="M124.635 38.1782C124.635 34.7318 127.035 32.4004 129.935 32.4004C132.135 32.4004 133.935 33.9209 134.635 35.8468L135.035 36.7591L127.435 40.0027C127.935 40.8136 128.635 41.7259 130.235 41.7259C131.635 41.7259 132.535 40.915 133.035 40.1041L135.035 41.4218C134.135 42.6382 132.635 43.9559 130.235 43.9559C127.335 43.9559 124.635 41.8273 124.635 38.1782ZM132.135 35.7454C131.835 35.1372 131.035 34.529 130.035 34.529C128.335 34.529 126.835 36.2522 127.035 37.8741L132.135 35.7454Z" fill="white"/>
<path d="M123.236 26.5205H120.736V43.5497H123.236V26.5205Z" fill="white"/>
<path d="M154.336 26.5205H156.836V43.5497H154.336V26.5205Z" fill="white"/>
<path fill-rule="evenodd" clip-rule="evenodd" d="M141.035 26.5205V43.5497H143.535V37.2651H147.135C150.035 37.2651 152.435 34.8324 152.435 31.8928C152.435 28.9533 150.035 26.5205 147.135 26.5205H141.035ZM143.535 34.8324H147.135C148.735 34.8324 149.935 33.5147 149.935 31.9942C149.935 30.3724 148.635 29.156 147.135 29.156H143.535V34.8324Z" fill="white"/>
<path d="M175.335 49.1255L182.535 32.4004H179.835L176.557 39.9114L173.235 32.4004H170.535L175.177 43.0719L172.535 49.1255H175.335Z" fill="white"/>
<path fill-rule="evenodd" clip-rule="evenodd" d="M167.135 43.5494H169.535V37.4675C169.935 31.1829 162.035 29.6625 159.035 34.2239L161.035 35.643C162.535 33.0075 166.635 33.6157 166.935 36.4539C165.635 36.1498 164.335 35.8457 163.135 36.0484C161.235 36.2512 159.535 37.4675 159.335 39.4948C159.235 40.6098 159.435 41.9276 160.235 42.7385C161.435 44.0562 163.335 44.1576 164.935 43.7521C165.835 43.5494 166.535 42.9412 167.135 42.2317V43.5494ZM167.035 38.6839C166.735 40.103 165.635 41.1167 164.235 41.5221C161.335 42.333 160.635 37.5689 164.935 38.1771C165.735 38.2785 166.335 38.3798 167.035 38.6839Z" fill="white"/>
<path d="M88.9359 12.7354H87.8359V20.4391H88.9359V12.7354Z" fill="white"/>
<path d="M82.5352 20.5404H81.4352V13.8504H79.5352V12.7354H84.4352V13.9517H82.5352V20.5404Z" fill="white"/>
<path d="M74.0352 20.5404H78.4352V19.4254H75.2352V17.2968H78.0352V16.0804H75.2352V13.9517H78.4352V12.7354H74.0352V20.5404Z" fill="white"/>
<path d="M92.9355 20.5404H91.8355V13.8504H89.9355V12.7354H94.8355V13.9517H92.9355V20.5404Z" fill="white"/>
<path fill-rule="evenodd" clip-rule="evenodd" d="M101.836 12.5322C99.5363 12.5322 97.7363 14.4582 97.7363 16.5868C97.7363 18.6141 99.3363 20.6414 101.836 20.6414C104.236 20.6414 105.936 18.6141 105.936 16.5868C105.836 14.4582 104.036 12.5322 101.836 12.5322ZM101.836 19.5264C100.336 19.5264 98.9363 18.31 98.9363 16.5868C98.9363 14.965 100.236 13.6472 101.836 13.6472C103.436 13.6472 104.736 14.965 104.736 16.5868C104.636 18.31 103.336 19.5264 101.836 19.5264Z" fill="white"/>
<path d="M108.135 20.5404H107.035V12.7354H108.135L111.735 18.4118V12.7354H112.935V20.5404H111.835L108.135 14.864V20.5404Z" fill="white"/>
</svg>
