<svg xmlns="http://www.w3.org/2000/svg" fill="none" viewBox="0 0 48 48">
  <path fill="currentColor" d="M24 4c5.434 0 6.112.02 8.244.12 2.13.1 3.58.434 4.856.93 1.32.508 2.432 1.196 3.544 2.306A9.816 9.816 0 0 1 42.95 10.9c.494 1.274.83 2.726.93 4.856.094 2.132.12 2.81.12 8.244 0 5.434-.02 6.112-.12 8.244-.1 2.13-.436 3.58-.93 4.856a9.766 9.766 0 0 1-2.306 3.544A9.83 9.83 0 0 1 37.1 42.95c-1.274.494-2.726.83-4.856.93-2.132.094-2.81.12-8.244.12-5.434 0-6.112-.02-8.244-.12-2.13-.1-3.58-.436-4.856-.93a9.78 9.78 0 0 1-3.544-2.306A9.808 9.808 0 0 1 5.05 37.1c-.496-1.274-.83-2.726-.93-4.856C4.026 30.112 4 29.434 4 24c0-5.434.02-6.112.12-8.244.1-2.132.434-3.58.93-4.856a9.76 9.76 0 0 1 2.306-3.544A9.794 9.794 0 0 1 10.9 5.05c1.276-.496 2.724-.83 4.856-.93C17.888 4.026 18.566 4 24 4Zm0 10a10 10 0 1 0 0 20 10 10 0 0 0 0-20Zm13-.5a2.5 2.5 0 1 0-5 0 2.5 2.5 0 0 0 5 0ZM24 18a6 6 0 1 1 0 12 6 6 0 0 1 0-12Z"/>
</svg>