<svg width="776" height="310" viewBox="0 0 776 310" fill="none" xmlns="http://www.w3.org/2000/svg">
<path d="M97.6685 294.975V276.276C97.6685 269.104 93.3077 264.493 85.8687 264.493C82.021 264.493 78.1733 265.774 75.3516 269.872C73.2995 266.542 69.9647 264.493 65.3474 264.493C62.2692 264.493 59.191 265.518 56.6258 268.848V265.005H50.2129V294.719H56.6258V278.325C56.6258 272.946 59.4475 270.641 63.8083 270.641C68.1691 270.641 70.2213 273.458 70.2213 278.325V294.719H76.6342V278.325C76.6342 272.946 79.7123 270.641 83.8166 270.641C88.1774 270.641 90.2295 273.458 90.2295 278.325V294.719L97.6685 294.975ZM194.375 265.262H183.858V256.296H177.445V265.262H171.545V271.153H177.445V284.729C177.445 291.645 180.267 295.488 187.706 295.488C190.528 295.488 193.606 294.463 195.658 293.438L193.862 287.803C192.067 289.084 189.758 289.34 188.219 289.34C185.141 289.34 183.858 287.547 183.858 284.473V271.153H194.375V265.262ZM249.526 264.493C245.679 264.493 243.37 266.286 241.831 268.848V265.005H235.418V294.719H241.831V278.069C241.831 273.202 243.883 270.385 247.987 270.385C249.27 270.385 250.809 270.641 252.092 270.897L253.887 264.749C252.605 264.493 250.809 264.493 249.526 264.493ZM166.159 267.567C163.08 265.518 158.72 264.493 154.102 264.493C146.663 264.493 141.789 268.335 141.789 274.227C141.789 279.094 145.637 281.912 152.05 282.936L155.128 283.192C158.463 283.705 160.515 284.729 160.515 286.266C160.515 288.315 157.95 290.108 153.589 290.108C149.228 290.108 145.894 288.572 143.585 287.035L140.507 291.902C143.842 294.463 148.459 295.744 153.333 295.744C162.054 295.744 166.928 291.645 166.928 286.01C166.928 280.631 162.824 278.069 156.667 277.045L153.589 276.788C150.768 276.532 148.715 275.764 148.715 273.971C148.715 271.922 150.768 270.641 154.359 270.641C158.207 270.641 161.798 272.178 163.593 273.202L166.159 267.567ZM339.307 264.493C335.46 264.493 333.151 266.286 331.612 268.848V265.005H324.942V294.719H331.355V278.069C331.355 273.202 333.408 270.385 337.512 270.385C338.794 270.385 340.333 270.641 341.616 270.897L343.412 264.749C342.386 264.493 340.59 264.493 339.307 264.493ZM256.196 280.118C256.196 289.084 262.352 295.744 272.1 295.744C276.461 295.744 279.539 294.719 282.617 292.414L279.539 287.035C276.974 288.828 274.665 289.852 271.843 289.852C266.457 289.852 262.865 286.01 262.865 280.118C262.865 274.483 266.713 270.897 271.843 270.385C274.665 270.385 277.23 271.409 279.539 273.202L282.617 267.823C279.539 265.262 276.461 264.493 272.1 264.493C262.352 264.493 256.196 270.897 256.196 280.118ZM316.221 280.118V265.262H309.808V269.104C307.756 266.286 304.421 264.749 300.573 264.749C292.108 264.749 285.695 271.153 285.695 280.375C285.695 289.596 292.108 296 300.573 296C304.934 296 308.012 294.463 309.808 291.645V295.488H316.221V280.118ZM292.365 280.118C292.365 274.739 295.7 270.385 301.343 270.385C306.73 270.385 310.321 274.483 310.321 280.118C310.321 285.498 306.473 289.852 301.343 289.852C295.956 289.34 292.365 285.242 292.365 280.118ZM214.384 264.493C205.662 264.493 199.506 270.641 199.506 280.118C199.506 289.34 205.662 295.744 214.64 295.744C219.001 295.744 223.362 294.463 226.697 291.645L223.618 287.035C221.053 288.828 217.975 290.108 214.897 290.108C210.792 290.108 206.945 288.315 205.919 282.936H227.979C227.979 281.912 227.979 281.399 227.979 280.375C228.492 270.641 222.849 264.493 214.384 264.493ZM214.384 270.128C218.488 270.128 221.31 272.69 221.823 277.301H206.175C206.945 273.202 209.766 270.128 214.384 270.128ZM376.246 280.118V253.479H369.833V269.104C367.781 266.286 364.446 264.749 360.598 264.749C352.133 264.749 345.72 271.153 345.72 280.375C345.72 289.596 352.133 296 360.598 296C364.959 296 368.037 294.463 369.833 291.645V295.488H376.246V280.118ZM352.39 280.118C352.39 274.739 355.725 270.385 361.368 270.385C366.755 270.385 370.346 274.483 370.346 280.118C370.346 285.498 366.498 289.852 361.368 289.852C355.725 289.34 352.39 285.242 352.39 280.118ZM134.35 280.118V265.262H127.938V269.104C125.885 266.286 122.551 264.749 118.703 264.749C110.238 264.749 103.825 271.153 103.825 280.375C103.825 289.596 110.238 296 118.703 296C123.064 296 126.142 294.463 127.938 291.645V295.488H134.35V280.118ZM110.238 280.118C110.238 274.739 113.573 270.385 119.216 270.385C124.603 270.385 128.194 274.483 128.194 280.118C128.194 285.498 124.346 289.852 119.216 289.852C113.573 289.34 110.238 285.242 110.238 280.118Z" fill="white"/>
<path d="M261.582 39.0784H163.85V214.543H261.582V39.0784Z" fill="#FF5A00"/>
<path d="M170.263 126.683C170.263 91.0775 186.936 59.3145 212.844 38.8223C193.862 23.9654 170.006 15 143.841 15C82.0208 15 32 64.9499 32 126.683C32 188.416 82.0208 238.366 143.841 238.366C170.006 238.366 193.862 229.4 212.844 214.543C187.193 194.307 170.263 162.544 170.263 126.683Z" fill="#EB001B"/>
<path d="M393.689 126.683C393.689 188.416 343.668 238.366 281.847 238.366C255.683 238.366 231.826 229.4 212.844 214.543C239.009 194.051 255.426 162.544 255.426 126.683C255.426 90.8214 238.752 59.3145 212.844 38.8223C231.826 23.9654 255.683 15 281.847 15C343.668 15.2562 393.689 65.4622 393.689 126.683Z" fill="#F79E1B"/>
<path d="M545.582 235.793C536.59 235.793 532.993 230.621 534.504 222.073L538.532 199.446H530.403L531.986 190.61H540.115L542.56 176.603H553.279L550.833 190.61H562.055L560.472 199.446H549.25L545.438 221.139C544.862 224.587 546.157 226.024 549.538 226.024C551.912 226.024 554.214 225.88 556.588 225.593L555.005 234.572C551.912 235.362 548.819 235.721 545.582 235.793Z" fill="white"/>
<path d="M560.904 234.931L568.745 190.538H579.607L571.766 234.931H560.904Z" fill="white"/>
<path d="M705.781 235.793C696.789 235.793 693.192 230.621 694.703 222.073L698.731 199.446H690.531L692.113 190.61H700.242L702.688 176.603H713.406L710.96 190.61H722.182L720.6 199.446H709.378L705.565 221.139C704.99 224.587 706.285 226.024 709.665 226.024C712.039 226.024 714.341 225.88 716.715 225.593L715.133 234.572C712.111 235.362 708.946 235.721 705.781 235.793Z" fill="white"/>
<path d="M721.031 234.931L728.872 190.538H739.734L731.893 234.931H721.031Z" fill="white"/>
<path d="M611.33 232.632C608.165 234.859 604.353 236.224 599.821 236.224C594.497 236.224 590.613 234.356 588.958 231.842L585.362 252.027H574.715L585.506 190.754H595.505L594.569 195.638C597.95 191.544 603.202 189.748 608.093 189.748C612.553 189.748 615.862 191.257 618.164 193.483C622.696 197.793 624.135 204.474 622.696 212.806C621.185 221.498 617.373 228.251 611.33 232.632ZM610.971 202.103C609.748 200.164 607.733 198.584 604.424 198.584C596.08 198.584 592.915 206.485 591.836 212.95C590.757 219.415 591.045 227.173 599.389 227.173C602.698 227.173 605.288 225.665 607.158 223.653C609.892 220.78 611.186 216.757 611.906 212.878C612.625 208.999 612.697 204.977 610.971 202.103Z" fill="white"/>
<path d="M658.016 235.722C653.412 235.722 651.326 232.848 651.614 229.472C648.952 233.064 643.269 236.153 636.939 236.153C626.365 236.153 622.049 229.472 623.343 222.217C624.854 213.741 632.263 208.928 640.824 208.281L654.06 207.348L654.563 204.618C655.283 200.452 654.347 197.65 648.305 197.65C643.341 197.65 640.032 199.877 639.097 203.971H628.667C631.041 193.987 639.745 189.533 649.672 189.533C657.297 189.533 663.339 191.903 664.706 198.584C665.354 201.385 664.922 204.546 664.418 207.563L661.541 224.013C661.181 226.096 661.757 226.814 663.555 226.814C664.059 226.814 664.49 226.742 664.922 226.671L663.555 234.5C661.613 235.291 660.606 235.722 658.016 235.722ZM652.693 215.321L641.255 216.183C637.946 216.47 634.421 218.41 633.846 222.001C633.271 225.449 635.86 227.533 639.169 227.533C645.859 227.533 651.182 223.941 652.333 217.404L652.693 215.321Z" fill="white"/>
<path d="M680.316 235.506C673.05 235.506 668.806 231.986 670.317 223.581L678.589 176.531H689.38L681.395 221.786C680.963 224.372 681.251 226.024 684.92 226.024C685.855 226.024 686.143 225.952 686.718 225.952L685.135 234.931C682.905 235.362 682.474 235.506 680.316 235.506Z" fill="white"/>
<path d="M743.259 169.348C743.403 174.017 739.734 177.968 735.058 178.111C733.548 178.183 732.037 177.824 730.67 177.106C730.526 177.034 730.383 176.962 730.239 176.818C707.795 163.673 681.539 156.49 653.628 157.424C624.998 158.357 598.67 167.696 576.873 182.996C576.729 183.068 576.658 183.14 576.514 183.212C576.298 183.283 576.082 183.355 575.866 183.355C575.003 183.355 574.284 182.709 574.284 181.847C574.284 181.559 574.356 181.272 574.499 181.057C574.787 180.841 575.003 180.626 575.291 180.338C599.245 158.932 630.537 145.499 665.209 144.35C691.682 143.488 716.643 149.881 738.295 161.733L738.871 162.093C739.806 162.595 740.597 163.242 741.245 164.032C742.468 165.541 743.187 167.408 743.259 169.348Z" fill="#FFBC00"/>
<path d="M735.013 61.2839H743.263V125.05H735.357V117.831C731.662 122.987 725.818 125.565 719.115 125.565C705.794 125.565 696.083 116.198 696.083 102.276C696.083 88.3543 705.794 79.073 719.115 79.073C725.56 79.073 731.232 81.4793 735.013 86.3777V61.2839ZM719.802 118.347C728.482 118.347 735.099 111.987 735.099 102.276C735.099 92.5652 728.482 86.2918 719.802 86.2918C711.037 86.2918 704.419 92.5652 704.419 102.276C704.419 111.987 711.037 118.347 719.802 118.347Z" fill="white"/>
<path d="M684.714 70.7371C681.534 70.7371 679.128 68.4168 679.128 65.4089C679.128 62.4011 681.534 59.9949 684.714 59.9949C687.894 59.9949 690.3 62.3152 690.3 65.2371C690.3 68.3308 687.98 70.7371 684.714 70.7371ZM680.589 125.05V79.5027H688.839V125.05H680.589Z" fill="white"/>
<path d="M650.111 79.0732C662.572 79.0732 669.619 85.0889 669.619 97.5498V125.05H661.798V119.034C659.048 123.159 653.978 125.565 646.845 125.565C636.533 125.565 630.001 120.065 630.001 112.159C630.001 104.855 634.728 98.8389 648.306 98.8389H661.369V97.2061C661.369 90.2451 657.33 86.2061 649.166 86.2061C643.751 86.2061 638.251 88.0967 634.728 91.1045L631.291 84.917C636.017 81.1357 642.806 79.0732 650.111 79.0732ZM648.22 119.206C654.408 119.206 659.306 116.37 661.369 111.128V104.769H648.65C640.486 104.769 638.166 107.948 638.166 111.815C638.166 116.37 641.947 119.206 648.22 119.206Z" fill="white"/>
<path d="M603.811 79.0732C617.132 79.0732 626.843 88.3545 626.843 102.276C626.843 116.284 617.132 125.565 603.811 125.565C597.366 125.565 591.694 123.073 587.913 118.175V141.722H579.663V79.5029H587.569V86.7217C591.264 81.6514 597.108 79.0732 603.811 79.0732ZM603.124 118.347C611.889 118.347 618.507 111.987 618.507 102.276C618.507 92.6514 611.889 86.292 603.124 86.292C594.444 86.292 587.827 92.6514 587.827 102.276C587.827 111.987 594.444 118.347 603.124 118.347Z" fill="white"/>
<path d="M572.504 102.534C572.504 103.222 572.418 104.253 572.332 105.026H535.379C536.41 113.019 542.856 118.347 551.879 118.347C557.207 118.347 561.676 116.542 565.028 112.847L569.582 118.175C565.457 122.987 559.184 125.565 551.621 125.565C536.926 125.565 527.129 115.855 527.129 102.276C527.129 88.7842 536.84 79.0732 549.989 79.0732C563.137 79.0732 572.504 88.5264 572.504 102.534ZM549.989 86.0342C542.082 86.0342 536.239 91.3623 535.379 99.0967H564.598C563.739 91.4483 557.981 86.0342 549.989 86.0342Z" fill="white"/>
<path d="M509.302 87.1514C512.224 81.8232 517.896 79.0732 525.888 79.0732V87.0654C525.2 86.9795 524.599 86.9795 523.997 86.9795C515.146 86.9795 509.646 92.3936 509.646 102.362V125.05H501.396V79.5029H509.302V87.1514Z" fill="white"/>
<path d="M469.932 64.8933C485.572 64.8933 495.025 72.7996 495.025 85.8621C495.025 98.9246 485.572 106.831 469.932 106.831H455.064V125.05H446.471V64.8933H469.932ZM469.674 99.3543C480.674 99.3543 486.432 94.4558 486.432 85.8621C486.432 77.2683 480.674 72.3699 469.674 72.3699H455.064V99.3543H469.674Z" fill="white"/>
<path d="M508.678 198.183H514.453L498.664 234C495.777 240.881 492.029 243.031 487.053 243.031C483.92 243.031 480.725 241.987 478.698 240.021L481.217 235.597C482.814 237.133 484.841 237.993 487.053 237.993C489.879 237.993 491.661 236.703 493.258 232.956L494.302 230.683L479.926 198.183H486.07L497.435 224.232L508.678 198.183Z" fill="white"/>
<path d="M464.998 197.876C474.521 197.876 481.463 204.511 481.463 214.464C481.463 224.416 474.521 231.113 464.998 231.113C460.206 231.113 456.029 229.27 453.387 225.583V230.744H447.735V185.159H453.633V203.098C456.336 199.596 460.391 197.876 464.998 197.876ZM464.507 225.952C470.773 225.952 475.504 221.406 475.504 214.464C475.504 207.522 470.773 203.037 464.507 203.037C458.302 203.037 453.571 207.522 453.571 214.464C453.571 221.406 458.302 225.952 464.507 225.952Z" fill="white"/>
</svg>
