<svg xmlns="http://www.w3.org/2000/svg" fill="none" viewBox="0 0 24 24">
  <path fill="currentColor" d="M4 3.018h16a1 1 0 0 1 1 1v16a1 1 0 0 1-1 1H4a1 1 0 0 1-1-1v-16a1 1 0 0 1 1-1Zm13.3 12.94c-.1-.05-.15-.2-.15-.301V8.024c0-.1.05-.25.15-.351l.955-1.105v-.05H14.84l-2.56 6.478-2.914-6.478H5.852v.05l.903 1.256c.201.2.251.502.251.753V14.1c.05.302 0 .653-.15.954L5.5 16.912v.05h3.616v-.05L7.76 15.105c-.15-.302-.201-.603-.15-.954V9.128c.05.1.1.1.15.3l3.414 7.634h.05l3.316-8.284c-.05.3-.05.652-.05.904v5.925c0 .15-.05.25-.15.35l-1.005.955v.05h4.921v-.05l-.954-.954H17.3Z"/>
</svg>