<svg width="50" height="50" viewBox="0 0 50 50" fill="none" xmlns="http://www.w3.org/2000/svg">
  <path fill-rule="evenodd" clip-rule="evenodd" d="M42.1454 12.7033C39.5001 12.7033 37.3558 10.559 37.3558 7.91366C37.3558 5.26834 39.5001 3.12402 42.1454 3.12402C44.7907 3.12402 46.9351 5.26834 46.9351 7.91366C46.9351 10.559 44.7907 12.7033 42.1454 12.7033ZM41.6665 7.4347H39.7506V8.39262H41.6665V10.3085H42.6244V8.39262H44.5402V7.4347H42.6244V5.51884H41.6665V7.4347ZM25.0814 7.08529C24.9163 6.71212 24.7131 6.34934 24.4708 6.00219C22.4439 3.09886 18.4471 2.38836 15.5438 4.41525C12.6405 6.44214 11.93 10.4389 13.9569 13.3422C14.1475 13.6152 14.3555 13.8688 14.5784 14.1026L18.7384 11.3232L20.8236 9.86747C20.8858 9.824 20.9283 9.75759 20.9416 9.68285C20.9549 9.60811 20.938 9.53117 20.8946 9.46895C20.8511 9.40673 20.7847 9.36432 20.71 9.35107C20.6352 9.33781 20.5583 9.35478 20.496 9.39825L18.6177 10.7095C18.3063 10.9269 17.9215 11.0118 17.5477 10.9455C17.174 10.8792 16.842 10.6672 16.6248 10.3561C16.4076 10.045 16.323 9.66024 16.3896 9.28656C16.4562 8.91287 16.6685 8.58083 16.9798 8.36347L17.4494 8.03565L17.0686 7.49019L18.0078 6.83454L18.3886 7.38L19.7517 6.42834L20.4069 7.36677L17.635 9.3019C17.5727 9.34537 17.5302 9.41178 17.5169 9.48652C17.5036 9.56125 17.5205 9.63819 17.564 9.70042C17.6074 9.76264 17.6738 9.80504 17.7486 9.8183C17.8233 9.83156 17.9003 9.81458 17.9625 9.77111L19.8408 8.45982C20.1522 8.24246 20.5371 8.1576 20.9108 8.22389C21.2845 8.29018 21.6165 8.5022 21.8337 8.81331C21.9051 8.91562 21.9622 9.0259 22.0043 9.14113L25.0814 7.08529ZM6.71505 16.6441L10.7745 16.6441L11.2749 16.3097L12.5741 15.0105C12.615 14.9696 12.638 14.9142 12.638 14.8564C12.638 14.7985 12.6151 14.7431 12.5742 14.7022C12.5334 14.6614 12.4779 14.6384 12.4201 14.6385C12.3623 14.6385 12.3069 14.6615 12.266 14.7024L11.0324 15.9359C10.828 16.1404 10.5507 16.2553 10.2616 16.2554C9.97259 16.2555 9.69542 16.1408 9.49111 15.9365C9.28679 15.7322 9.17207 15.455 9.17218 15.166C9.1723 14.8769 9.28723 14.5996 9.4917 14.3952L9.80008 14.0868L9.44186 13.7286L10.0586 13.1118L10.4168 13.47L11.3121 12.5748L11.9284 13.1911L10.108 15.0115C10.0671 15.0524 10.0441 15.1078 10.0441 15.1656C10.0441 15.2234 10.067 15.2789 10.1079 15.3197C10.1487 15.3606 10.2042 15.3835 10.262 15.3835C10.3198 15.3835 10.3752 15.3605 10.4161 15.3196L11.6497 14.0861C11.8541 13.8816 12.1314 13.7667 12.4205 13.7666C12.5096 13.7665 12.5976 13.7774 12.6826 13.7985C11.9748 12.6801 11.5891 11.4424 11.5053 10.199C10.2016 10.1554 8.88366 10.6311 7.88847 11.6263C6.53128 12.9835 6.14014 14.9409 6.71505 16.6441ZM32.002 7.39899L38.1788 16.6441H35.7542L31.5369 10.332C31.5137 10.3486 31.4901 10.3648 31.4662 10.3808C31.4423 10.3968 31.4183 10.4123 31.3941 10.4274C30.1263 11.2196 28.4421 10.8643 27.5558 9.61781C27.539 9.5941 27.5224 9.57006 27.5061 9.5457C27.4898 9.52134 27.474 9.49683 27.4585 9.47218L16.7242 16.6441H13.1395L28.1298 6.62862C29.4118 5.77209 31.1455 6.117 32.002 7.39899ZM34.1506 16.6441L31.0629 12.0226C29.742 12.4042 28.3081 12.0932 27.2429 11.2198L19.1242 16.6441L34.1506 16.6441ZM7.16744 18.1219H39.6822C41.6775 18.1219 43.295 19.7394 43.295 21.7346V27.3326C42.9886 27.217 42.6565 27.1538 42.3097 27.1538H41.6528V21.7346C41.6528 20.6463 40.7706 19.764 39.6822 19.764H7.16744C6.07911 19.764 5.19685 20.6463 5.19685 21.7346L5.19685 42.4259C5.19685 43.5142 6.07911 44.3965 7.16744 44.3965H39.6822C40.7706 44.3965 41.6528 43.5142 41.6528 42.4259V37.0068H42.3097C42.6565 37.0068 42.9886 36.9435 43.295 36.8279V42.4259C43.295 44.4211 41.6775 46.0386 39.6822 46.0386H7.16744C5.17217 46.0386 3.55469 44.4211 3.55469 42.4259L3.55469 21.7346C3.55469 19.7394 5.17217 18.1219 7.16744 18.1219ZM16.3639 21.4063C16.8174 21.4063 17.185 21.7739 17.185 22.2273C17.185 22.6808 16.8174 23.0484 16.3639 23.0484H8.15311C7.69964 23.0484 7.33203 22.6808 7.33203 22.2273C7.33203 21.7739 7.69964 21.4063 8.15311 21.4063H16.3639ZM19.6482 21.4063C19.1948 21.4063 18.8272 21.7739 18.8272 22.2273C18.8272 22.6808 19.1948 23.0484 19.6482 23.0484H37.8762V26.0043C37.8762 26.4578 38.2438 26.8254 38.6973 26.8254C39.1508 26.8254 39.5184 26.4578 39.5184 26.0043V22.2273C39.5184 21.7739 39.1508 21.4063 38.6973 21.4063H19.6482ZM8.97419 41.1122V33.8867C8.97419 33.4332 8.60658 33.0656 8.15311 33.0656C7.69964 33.0656 7.33203 33.4332 7.33203 33.8867V41.9333C7.33203 42.3867 7.69964 42.7544 8.15311 42.7544H25.7242C26.1777 42.7544 26.5453 42.3867 26.5453 41.9333C26.5453 41.4798 26.1777 41.1122 25.7242 41.1122H8.97419ZM29.0086 41.1122C28.5551 41.1122 28.1875 41.4798 28.1875 41.9333C28.1875 42.3867 28.5551 42.7544 29.0086 42.7544H38.6973C39.1508 42.7544 39.5184 42.3867 39.5184 41.9333C39.5184 41.4798 39.1508 41.1122 38.6973 41.1122H29.0086ZM18.0573 36.7881V34.4342H25.0583C25.2156 34.4342 25.3664 34.3722 25.4776 34.2619C25.5888 34.1515 25.6513 34.0018 25.6513 33.8457C25.6513 33.6897 25.5888 33.54 25.4776 33.4296C25.3664 33.3193 25.2156 33.2573 25.0583 33.2573H20.3143C19.5279 33.2573 18.7738 32.9473 18.2177 32.3955C17.6617 31.8437 17.3493 31.0953 17.3493 30.3149C17.3493 29.5345 17.6617 28.7861 18.2177 28.2343C18.7738 27.6825 19.5279 27.3725 20.3143 27.3725H21.5003V26.0043H23.8723V27.3725H27.3153V29.7264H20.3143C20.157 29.7264 20.0062 29.7884 19.895 29.8988C19.7838 30.0091 19.7213 30.1588 19.7213 30.3149C19.7213 30.471 19.7838 30.6207 19.895 30.731C20.0062 30.8414 20.157 30.9034 20.3143 30.9034H25.0583C25.8447 30.9034 26.5989 31.2134 27.1549 31.7652C27.7109 32.317 28.0233 33.0654 28.0233 33.8457C28.0233 34.6261 27.7109 35.3745 27.1549 35.9263C26.5989 36.4781 25.8447 36.7881 25.0583 36.7881H23.8723V38.1563H21.5003V36.7881H18.0573ZM35.9054 28.4675C35.0891 28.4675 34.4274 29.1292 34.4274 29.9455V34.2151C34.4274 35.0313 35.0891 35.693 35.9054 35.693H42.3098C43.126 35.693 43.7877 35.0313 43.7877 34.2151V29.9455C43.7877 29.1292 43.126 28.4675 42.3098 28.4675H35.9054ZM37.1367 33.0656C37.7262 33.0656 38.2041 32.5877 38.2041 31.9982C38.2041 31.4087 37.7262 30.9308 37.1367 30.9308C36.5472 30.9308 36.0693 31.4087 36.0693 31.9982C36.0693 32.5877 36.5472 33.0656 37.1367 33.0656Z" fill="currentColor"/>
</svg>
