<svg width="50" height="50" viewBox="0 0 50 50" fill="none" xmlns="http://www.w3.org/2000/svg">
  <path d="M18.1256 4.72665H22.5171C22.3584 4.27103 22.0617 3.87566 21.6682 3.59617C21.5507 3.51274 21.4265 3.4409 21.2969 3.38111C20.9927 3.2402 20.6601 3.1665 20.3215 3.1665C19.8387 3.1665 19.368 3.31668 18.9745 3.59617C18.8647 3.6745 18.7622 3.76164 18.6681 3.85666C18.5926 3.93314 18.5224 4.01471 18.4582 4.10046C18.4114 4.1635 18.3676 4.22885 18.3272 4.29606L18.282 4.37485C18.2621 4.41101 18.2431 4.44809 18.2253 4.48517C18.2035 4.53059 18.1831 4.57694 18.1641 4.62376L18.1349 4.70023L18.1256 4.72665Z" fill="#0D0E0E"/>
  <path d="M36.6797 19.7316C36.7145 19.7015 36.7481 19.6704 36.7807 19.638C36.806 19.6134 36.8308 19.5884 36.8549 19.5624C37.0021 19.4044 37.1267 19.2259 37.2252 19.0322C37.3015 18.8815 37.361 18.724 37.4028 18.5617C37.4514 18.3731 37.4762 18.1784 37.4762 17.9828V15.6435C37.4741 15.1615 37.3233 14.6915 37.0442 14.2984C36.765 13.9054 36.3712 13.6083 35.9168 13.4474V19.5921C36.0686 19.6287 36.2146 19.6862 36.3511 19.7622C36.3995 19.7895 36.4625 19.8229 36.5265 19.854C36.5793 19.8155 36.6306 19.7747 36.6797 19.7316Z" fill="#0D0E0E"/>
  <path d="M36.3916 30.6953H34.4931V31.6445H36.3916V30.6953Z" fill="#0D0E0E"/>
  <path d="M34.9677 34.4923C34.7056 34.4923 34.4931 34.7046 34.4931 34.9669C34.4931 35.1282 34.5735 35.271 34.6966 35.3567C34.7735 35.41 34.8669 35.4416 34.9677 35.4416H35.917C36.1791 35.4416 36.3916 35.2293 36.3916 34.9669C36.3916 34.7046 36.1791 34.4923 35.917 34.4923H34.9677Z" fill="#0D0E0E"/>
  <path fill-rule="evenodd" clip-rule="evenodd" d="M27.3495 26.7055L27.3393 30.5363C27.3223 33.01 27.9696 35.4425 29.2137 37.5806C30.4578 39.7188 32.2529 41.4833 34.4117 42.6912L35.526 43.3039L36.6419 42.6912C38.8007 41.4833 40.5959 39.7188 41.8399 37.5806C43.084 35.4425 43.7313 33.01 43.7144 30.5363V26.7064C40.8904 26.4149 38.1279 25.6936 35.5221 24.5673C32.9218 25.689 30.1662 26.4102 27.3495 26.7055ZM33.5438 30.6953V31.6445H32.5945C32.0703 31.6445 31.6453 32.0696 31.6453 32.5938V36.3908C31.6453 36.915 32.0703 37.3401 32.5945 37.3401H38.2902C38.8144 37.3401 39.2394 36.915 39.2394 36.3908V32.5938C39.2394 32.0696 38.8144 31.6445 38.2902 31.6445H37.3409V30.6953C37.3409 30.1711 36.9158 29.746 36.3916 29.746H34.4931C33.9689 29.746 33.5438 30.1711 33.5438 30.6953Z" fill="#0D0E0E"/>
  <path fill-rule="evenodd" clip-rule="evenodd" d="M46.692 23.7919C43.0743 23.765 39.5041 22.9678 36.219 21.4526L36.1107 21.4002C36.0213 21.3567 35.9369 21.3135 35.8586 21.2728L35.8039 21.244L35.7049 21.1907L35.6644 21.1685L35.5891 21.1258C35.5705 21.1124 35.549 21.104 35.5265 21.1017C35.5105 21.1013 35.4945 21.1064 35.4813 21.1156C32.036 22.8672 28.2269 23.7835 24.3619 23.791C24.3438 23.7933 24.3264 23.7988 24.3105 23.8072C24.2908 23.8174 24.2731 23.8318 24.259 23.8494C24.2331 23.8813 24.2203 23.9217 24.2231 23.9625V30.5363C24.2059 33.5681 25.0027 36.5489 26.5307 39.1672C28.0584 41.7855 30.2612 43.9459 32.9088 45.4226L35.4041 46.795C35.418 46.8043 35.4328 46.8122 35.4484 46.8182C35.4574 46.8219 35.4669 46.8247 35.4764 46.827C35.4906 46.8303 35.5052 46.8326 35.52 46.8331C35.5615 46.8344 35.6023 46.8238 35.6382 46.8029L38.1474 45.4226C40.795 43.9459 42.9978 41.7855 44.5255 39.1672C46.0533 36.5484 46.8503 33.5681 46.8331 30.5363V23.9634C46.8336 23.955 46.8336 23.9467 46.8326 23.9384L46.8306 23.9221C46.8255 23.8957 46.8139 23.8707 46.7965 23.8494C46.7703 23.8174 46.733 23.797 46.692 23.7919ZM45.2736 30.5363C45.291 33.2886 44.5696 35.995 43.1841 38.3727C41.7989 40.751 39.8005 42.7134 37.3979 44.0557L36.2822 44.6704C36.0519 44.7978 35.7928 44.865 35.5293 44.865C35.4507 44.865 35.3724 44.859 35.2952 44.8469L35.2556 44.8405C35.2159 44.8335 35.1765 44.8252 35.1376 44.815C35.0945 44.8034 35.0516 44.7899 35.0094 44.7751C34.9292 44.7468 34.8514 44.7116 34.7765 44.6704L33.6636 44.0571C31.2594 42.7158 29.2591 40.7538 27.8723 38.3751C26.4855 35.9968 25.7626 33.2895 25.7796 30.5363V26.7031C25.7805 26.3189 25.9232 25.9486 26.1803 25.663C26.4375 25.3775 26.7909 25.1972 27.1731 25.1564C29.8332 24.8783 32.4358 24.1993 34.8926 23.1421C35.0912 23.0521 35.307 23.0058 35.5251 23.0058C35.5969 23.0058 35.6683 23.0109 35.739 23.0206C35.8178 23.0317 35.8957 23.0489 35.9719 23.0721C36.0013 23.0813 36.0305 23.0911 36.0595 23.1017L36.113 23.1231L36.1573 23.1421C38.6132 24.2021 41.2163 24.8811 43.8771 25.1564C44.2602 25.1963 44.6147 25.3771 44.8727 25.6635C45.1306 25.9495 45.2734 26.3212 45.2736 26.7064V30.5363Z" fill="#0D0E0E"/>
  <path d="M10.1848 35.137H23.237C24.2386 39.1644 26.5698 42.7357 29.8533 45.2738H10.1848V35.137Z" fill="#0D0E0E"/>
  <path d="M7.06533 45.2734V33.5769C7.06533 33.1634 7.22965 32.7667 7.52212 32.4742C7.6475 32.3491 7.79188 32.2471 7.94878 32.1715L7.99073 32.1525L8.02132 32.1391L8.06559 32.122L8.11055 32.1048C8.13465 32.0965 8.15898 32.0886 8.18332 32.0816L8.21994 32.0714L8.27648 32.0571C8.39004 32.0311 8.50685 32.0177 8.62504 32.0177H22.7246C22.7658 32.5433 22.8321 33.0624 22.9165 33.5769H10.1845C9.77084 33.5769 9.37408 33.7414 9.0816 34.0339C8.78913 34.3264 8.62504 34.7231 8.62504 35.1366V45.2734H7.06533Z" fill="#0D0E0E"/>
  <path d="M17.2025 28.8988H22.6608V30.4584H17.2025V28.8988Z" fill="#0D0E0E"/>
  <path d="M6.28571 11.7441V21.8809C6.28756 23.3279 6.86324 24.7152 7.88644 25.7386C8.90964 26.7616 10.2969 27.3372 11.744 27.3391H22.6606V25.7799H12.5239C11.2833 25.7785 10.0939 25.2853 9.21695 24.4079C8.33975 23.5309 7.84635 22.3416 7.84519 21.1013V12.5242C7.84635 11.2834 8.33975 10.0945 9.21695 9.21706C10.0939 8.34012 11.2833 7.84649 12.5239 7.84556H28.1189C29.3595 7.84649 30.5486 8.34012 31.4258 9.21706C32.303 10.0945 32.7962 11.2834 32.7976 12.5242V20.6382C33.3287 20.4338 33.8493 20.2021 34.357 19.9448V11.7441C34.3552 10.297 33.7795 8.90976 32.7563 7.88681C31.7331 6.8634 30.3458 6.28773 28.8987 6.28587H11.744C10.2969 6.28773 8.90964 6.8634 7.88644 7.88681C6.86324 8.90976 6.28756 10.297 6.28571 11.7441Z" fill="#0D0E0E"/>
  <path d="M3.9466 45.2734H5.50608V33.5774C5.50701 33.4522 5.51535 33.3271 5.53134 33.2028C5.54525 33.0948 5.56495 32.9878 5.59021 32.8816C4.90259 33.0392 4.28867 33.4249 3.84857 33.976C3.40847 34.5271 3.16814 35.2112 3.16675 35.9166V44.4938C3.16675 44.5841 3.18251 44.6731 3.2124 44.7566C3.23767 44.8275 3.27312 44.8942 3.31808 44.9554C3.34126 44.9869 3.36698 45.0171 3.39503 45.0449C3.54126 45.1913 3.73965 45.2734 3.9466 45.2734Z" fill="#0D0E0E"/>
  <path d="M4.72623 13.4474V20.1784C4.27176 20.0176 3.878 19.7205 3.59874 19.3274C3.31971 18.9344 3.16883 18.4649 3.16675 17.9828V15.6435C3.16883 15.1615 3.31971 14.6915 3.59874 14.2984C3.67615 14.1895 3.76259 14.088 3.85645 13.9948C3.92204 13.9295 3.99133 13.8683 4.0641 13.8113C4.26249 13.656 4.4859 13.5327 4.72623 13.4474Z" fill="#0D0E0E"/>
  <path d="M28.1189 14.4736C28.1189 15.5504 27.2461 16.4231 26.1696 16.4231C25.0929 16.4231 24.2201 15.5504 24.2201 14.4736C24.2201 13.3969 25.0929 12.5242 26.1696 12.5242C27.2461 12.5242 28.1189 13.3969 28.1189 14.4736Z" fill="#0D0E0E"/>
  <path d="M14.4732 16.4231C15.5499 16.4231 16.4227 15.5504 16.4227 14.4736C16.4227 13.3969 15.5499 12.5242 14.4732 12.5242C13.3966 12.5242 12.5239 13.3969 12.5239 14.4736C12.5239 15.5504 13.3966 16.4231 14.4732 16.4231Z" fill="#0D0E0E"/>
  <path fill-rule="evenodd" clip-rule="evenodd" d="M31.2381 21.1717C28.9866 21.8276 26.6586 22.184 24.3139 22.2322C23.8671 22.2484 23.4444 22.4385 23.1355 22.7615C22.8268 23.0851 22.6564 23.5161 22.6608 23.9629V24.2206H12.5239C11.6967 24.2206 10.9034 23.892 10.3185 23.3071C9.73353 22.7221 9.4049 21.9286 9.4049 21.1013V12.5242C9.4049 11.6968 9.73353 10.9037 10.3185 10.3188C10.9034 9.73387 11.6967 9.40524 12.5239 9.40524H28.1191C28.9463 9.40524 29.7398 9.73387 30.3247 10.3188C30.9095 10.9037 31.2381 11.6968 31.2381 12.5242V21.1717ZM27.7724 11.3524C27.61 11.269 27.4417 11.1985 27.269 11.1415C26.9163 11.0252 26.5453 10.9649 26.1698 10.9649C25.2393 10.9659 24.3475 11.3357 23.6896 11.9934C23.0319 12.6516 22.6618 13.5434 22.6608 14.4736C22.6608 15.1675 22.8666 15.8461 23.2523 16.4231C23.6377 17.0002 24.1858 17.4498 24.827 17.7154C25.4681 17.981 26.1735 18.0505 26.8542 17.9151C27.5349 17.7798 28.1601 17.4456 28.651 16.9548C29.1416 16.4639 29.4758 15.8387 29.6112 15.1582C29.7467 14.4774 29.6772 13.7719 29.4116 13.1309C29.146 12.4899 28.6962 11.9415 28.1191 11.5559C28.0072 11.4813 27.8913 11.4131 27.7724 11.3524ZM11.5558 12.5242C11.1702 13.1012 10.9644 13.7798 10.9644 14.4736C10.9655 15.4039 11.3354 16.2957 11.9934 16.9534C12.6511 17.6116 13.5431 17.9814 14.4734 17.9824C15.1673 17.9824 15.8458 17.7766 16.4227 17.3909C16.9997 17.0058 17.4496 16.4574 17.7152 15.8164C17.9808 15.1754 18.0503 14.4699 17.9149 13.789C17.7794 13.1086 17.4452 12.4834 16.9546 11.9925C16.8431 11.8813 16.7249 11.7779 16.6007 11.6829C16.5372 11.6347 16.4723 11.5888 16.4058 11.5448C16.0289 11.2959 15.6055 11.1211 15.158 11.0321C14.4773 10.8968 13.7716 10.9663 13.1306 11.2319C12.7505 11.3895 12.4033 11.6115 12.1032 11.8864C11.897 12.075 11.7129 12.2892 11.5558 12.5242ZM17.3636 19.8215C18.2125 19.4818 19.2216 19.3015 20.254 19.3043C21.2865 19.3015 22.2956 19.4818 23.1445 19.8215C23.9936 20.1608 24.6414 20.6433 25.0004 21.2028H15.5077C15.8667 20.6433 16.5144 20.1608 17.3636 19.8215Z" fill="#0D0E0E"/>
</svg>
