<svg width="50" height="50" viewBox="0 0 50 50" fill="none" xmlns="http://www.w3.org/2000/svg">
  <path fill-rule="evenodd" clip-rule="evenodd" d="M28.9231 4.11329C28.9231 3.86669 28.7232 3.66675 28.4765 3.66675H27.4344C27.1876 3.66675 26.9877 3.86669 26.9877 4.11329V4.49842L6.26488 4.49842V4.11329C6.26488 3.86669 6.06497 3.66675 5.81825 3.66675H4.77612C4.52939 3.66675 4.32949 3.86669 4.32949 4.11329V4.49842L3.21291 4.49842C2.88405 4.49842 2.61741 4.76493 2.61741 5.0938L2.61741 7.83446C2.61741 8.16326 2.88405 8.42985 3.21291 8.42985H3.88286L3.88286 5.9278C3.88286 5.6812 4.08276 5.48126 4.32949 5.48126C4.57621 5.48126 4.77612 5.6812 4.77612 5.9278L4.77612 8.42985H5.22275L5.22275 5.9278C5.22275 5.6812 5.42265 5.48126 5.66937 5.48126C5.9161 5.48126 6.116 5.6812 6.116 5.9278V8.42985H6.56263V5.9278C6.56263 5.6812 6.76254 5.48126 7.00926 5.48126C7.25598 5.48126 7.45589 5.6812 7.45589 5.9278V8.42985H7.90252V5.9278C7.90252 5.6812 8.10243 5.48126 8.34915 5.48126C8.59587 5.48126 8.79578 5.6812 8.79578 5.9278L8.79578 8.42985H9.24241L9.24241 5.9278C9.24241 5.6812 9.44232 5.48126 9.68904 5.48126C9.93576 5.48126 10.1357 5.6812 10.1357 5.9278L10.1357 8.42985L29.2953 8.42985C29.6242 8.42985 29.8908 8.16327 29.8908 7.83447V6.61534H30.1141C30.443 6.61534 30.7096 6.34876 30.7096 6.01996V5.09381C30.7096 4.76493 30.443 4.49842 30.1141 4.49842L28.9231 4.49842V4.11329ZM22.3435 11.0425L28.9564 11.0425C29.4314 11.0425 29.8164 10.6575 29.8164 10.1827C29.8164 9.70784 29.4314 9.32294 28.9564 9.32294L3.40293 9.32293C2.92795 9.32293 2.54297 9.70784 2.54297 10.1827C2.54297 10.6575 2.92795 11.0425 3.40293 11.0425C4.43583 11.0425 5.59032 11.3078 6.04043 12.2375C6.55263 13.2954 6.03269 14.4426 5.08825 16.5266L5.08823 16.5266C4.87502 16.9971 4.64018 17.5153 4.39069 18.091L4.10617 18.7486C2.5578 22.3372 3.70912 24.0817 4.47836 24.5053L11.7964 24.5053C12.4415 24.5053 12.9643 23.9825 12.9643 23.3377C12.9643 23.077 12.8771 22.8237 12.7163 22.6184L12.1455 21.8886L13.8509 16.9893C14.0309 16.3465 14.6169 15.9021 15.2845 15.9021H19.366C20.1882 15.9021 20.8548 15.2357 20.8548 14.4136V12.531C20.8548 11.7089 21.5214 11.0425 22.3435 11.0425ZM19.8126 11.8615C19.8126 11.4505 19.4794 11.1172 19.0682 11.1172H17.0648C16.9962 11.8109 17.0561 12.7791 17.6051 13.2863C17.7025 13.3763 17.734 13.5271 17.6546 13.6334C17.608 13.6959 17.5321 13.7309 17.4556 13.7158C16.8917 13.6044 15.9088 13.0453 15.5971 11.4915C14.9971 11.8918 14.602 12.5747 14.602 13.3499V13.9617C14.602 14.3727 14.9352 14.7059 15.3463 14.7059H19.0682C19.4794 14.7059 19.8126 14.3727 19.8126 13.9617V11.8615ZM12.2199 26.3659C12.2199 25.8316 11.7867 25.3984 11.2522 25.3984H5.59493C5.06049 25.3984 4.62724 25.8316 4.62724 26.3659C4.62724 26.9002 5.06049 27.3334 5.59493 27.3334H11.2522C11.7867 27.3334 12.2199 26.9002 12.2199 26.3659ZM21.8971 32.9414L36.4985 32.9414C40.8578 32.9414 42.0182 33.3741 43.5706 33.9529L43.5706 33.9529L43.5707 33.9529L43.5715 33.9532C43.7769 34.0298 43.989 34.1089 44.2164 34.1898C44.8096 34.4012 45.3189 34.6447 45.8052 34.8773C46.915 35.4079 47.9053 35.8815 49.5007 35.785C48.0869 37.9351 43.2846 42.0964 36.4985 41.5415L35.25 40.4519C34.7132 39.9833 33.8966 40.0451 33.4365 40.5891C32.8636 41.2664 31.8482 41.3462 31.1765 40.7668L30.8319 40.4694C30.2656 39.981 29.4168 40.0184 28.8958 40.5549L28.8658 40.5858C28.204 41.2672 27.1153 41.2843 26.4325 40.6238L26.3572 40.551C25.8249 40.0361 24.9681 40.079 24.4899 40.6444C23.935 41.3004 22.9609 41.401 22.2836 40.8723L21.8971 40.5706V36.9553C21.9847 36.9835 22.0782 36.9988 22.1752 36.9988H36.9157C37.4149 36.9988 37.8196 36.9072 37.8196 36.4092C37.8196 35.9113 37.4149 35.8197 36.9157 35.8197H22.1752C22.0782 35.8197 21.9847 35.8349 21.8971 35.8632V32.9414ZM19.747 29.4759C20.4748 29.4759 21.0648 30.0658 21.0648 30.7936V43.6895C21.0648 44.4173 20.4748 45.0073 19.747 45.0073C19.0192 45.0073 18.4293 44.4173 18.4293 43.6895L18.4293 30.7936C18.4293 30.0658 19.0192 29.4759 19.747 29.4759ZM17.5973 34.6755C17.5973 33.9477 17.0074 33.3577 16.2796 33.3577C15.5518 33.3577 14.9618 33.9477 14.9618 34.6755V39.8078C14.9618 40.5356 15.5518 41.1255 16.2796 41.1255C17.0074 41.1255 17.5973 40.5356 17.5973 39.8078V34.6755ZM12.8115 33.3577C13.5393 33.3577 14.1292 33.9477 14.1292 34.6755V39.8078C14.1292 40.5356 13.5393 41.1256 12.8115 41.1256C12.0837 41.1256 11.4937 40.5356 11.4937 39.8078V34.6755C11.4937 33.9477 12.0837 33.3577 12.8115 33.3577ZM10.6621 34.6754C10.6621 33.9477 10.0721 33.3577 9.34436 33.3577C8.61659 33.3577 8.02661 33.9477 8.02661 34.6754L8.02661 39.8077C8.02661 40.5355 8.61659 41.1255 9.34436 41.1255C10.0721 41.1255 10.6621 40.5355 10.6621 39.8077V34.6754ZM5.4601 35.0223C6.4177 35.0223 7.19399 35.7986 7.19399 36.7562V37.7272C7.19399 38.6848 6.4177 39.4611 5.4601 39.4611C4.5025 39.4611 3.72621 38.6848 3.72621 37.7272V36.7562C3.72621 35.7986 4.5025 35.0223 5.4601 35.0223ZM27.5017 15.8442C27.6916 15.6256 27.967 15.5001 28.2565 15.5001H38.0946C38.4044 15.5001 38.6967 15.6437 38.8861 15.8889L41.138 18.8048C41.4418 19.1983 41.4105 19.7552 41.0644 20.1121L33.8731 27.5295C33.6847 27.7238 33.4257 27.8334 33.1551 27.8334H32.4754C32.1964 27.8334 31.93 27.7168 31.7407 27.5118L24.9416 20.1484C24.5958 19.7738 24.5871 19.199 24.9214 18.8141L27.5017 15.8442ZM38.6678 7.57495C38.3869 7.65021 38.1527 7.84399 38.0262 8.1058L37.3849 9.43295C37.1643 9.88967 37.3205 10.4393 37.7484 10.7116L41.7592 13.2646C41.9831 13.407 42.2565 13.4491 42.5128 13.3804C42.7614 13.3138 42.9721 13.1489 43.0966 12.9236L45.4842 8.60155C45.7234 8.16864 45.6102 7.62593 45.2179 7.32477L44.156 6.50961C43.9093 6.32026 43.5886 6.25643 43.2882 6.33692L38.6678 7.57495Z" fill="currentColor"/>
</svg>
