<svg width="50" height="50" viewBox="0 0 50 50" fill="none" xmlns="http://www.w3.org/2000/svg">
  <path fill-rule="evenodd" clip-rule="evenodd" d="M22.3936 8.50889C27.0449 8.50889 30.8156 4.69933 30.8156 0C30.8156 4.69933 34.5863 8.50889 39.2377 8.50889C34.5863 8.50889 30.8156 12.3184 30.8156 17.0178C30.8156 12.3184 27.0449 8.50889 22.3936 8.50889ZM42.7331 17.9384L47.8333 32.2828L45.3895 33.4516L40.2892 19.1072L42.7331 17.9384ZM38.8017 19.851L44.2207 35.4704L41.7768 36.6392L36.3578 21.0198L38.8017 19.851ZM2.25 32.2828L7.35023 17.9384L9.7941 19.1072L4.69386 33.4516L2.25 32.2828ZM5.86267 35.4704L11.2817 19.851L13.7255 21.0198L8.30653 36.6392L5.86267 35.4704ZM15.3195 22.0823C15.6028 22.5782 16.5733 23.3999 18.1884 22.7198L16.382 25.0574C16.1341 25.7304 16.0633 27.3763 17.3383 28.3513C19.1447 29.7327 20.2072 29.3076 21.5885 28.5639C22.5783 28.0309 24.0398 26.492 24.9193 25.566L24.9195 25.5657C25.0218 25.458 25.1163 25.3586 25.2012 25.27L37.3856 37.5542C37.8162 37.9883 37.8147 38.6889 37.3824 39.1212C36.9384 39.5652 36.215 39.553 35.7863 39.0945L29.6482 32.5301C29.2501 32.1044 28.5785 32.0931 28.1664 32.5053C27.7619 32.9097 27.7641 33.5662 28.1713 33.9679L34.599 40.3099C35.0456 40.7506 35.0595 41.4669 34.6304 41.9246C34.1814 42.4036 33.4242 42.4133 32.9631 41.946L26.5275 35.4246C26.1524 35.0445 25.5358 35.0548 25.1736 35.4472C24.8329 35.8163 24.8443 36.3886 25.1995 36.7438L31.3508 42.8951C31.7689 43.3131 31.7689 43.991 31.3508 44.409C30.9432 44.8166 30.286 44.8283 29.8642 44.4354L22.8636 37.9143C22.7928 36.9226 21.9073 34.9817 19.3572 35.1517C19.0738 33.8058 17.9759 32.0703 15.2132 32.8141L12.0256 36.108L10.3255 35.4704L15.3195 22.0823ZM38.4827 35.8955L27.4022 24.7249C26.2671 23.5806 24.4563 23.4642 23.1841 24.4537L20.6059 26.459C20.0675 26.8777 19.3065 26.8504 18.7995 26.3941C18.1482 25.8079 18.1847 24.7756 18.8758 24.2369L21.6737 22.0563C23.5837 20.5676 26.1578 20.2502 28.3723 21.2304L31.2573 22.5073L34.87 22.2948L39.7577 35.2579L38.4827 35.8955ZM15.4854 35.0252C15.9544 34.5817 16.6942 34.6023 17.1377 35.0713C17.5813 35.5403 17.5606 36.2801 17.0916 36.7236L14.7002 38.9852C14.2312 39.4287 13.4914 39.4081 13.0479 38.9391C12.6043 38.4701 12.625 37.7303 13.094 37.2868L15.4854 35.0252ZM20.7145 37.2374C20.271 36.7684 19.5313 36.7478 19.0623 37.1913L15.956 40.1289C15.487 40.5724 15.4664 41.3122 15.9099 41.7812C16.3534 42.2502 17.0932 42.2708 17.5622 41.8273L20.6684 38.8897C21.1374 38.4462 21.1581 37.7064 20.7145 37.2374ZM22.0453 40.3871C22.5143 39.9436 23.2541 39.9643 23.6976 40.4333C24.1412 40.9023 24.1205 41.642 23.6515 42.0856L20.9626 44.6285C20.4936 45.072 19.7538 45.0514 19.3103 44.5824C18.8668 44.1133 18.8874 43.3736 19.3564 42.9301L22.0453 40.3871ZM26.3183 43.8179C25.7603 43.2617 24.855 43.2703 24.3077 43.837L23.134 45.0525C22.7042 45.4975 22.7572 46.2175 23.2477 46.5947C23.5343 46.8152 23.9151 46.8704 24.2526 46.7405L25.8293 46.1333C26.7826 45.7662 27.0417 44.539 26.3183 43.8179ZM17.0104 11.1136C17.0104 13.2715 15.3 15.0208 13.1901 15.0208C15.3 15.0208 17.0104 16.7701 17.0104 18.9279C17.0104 16.7701 18.7208 15.0208 20.8307 15.0208C18.7208 15.0208 17.0104 13.2715 17.0104 11.1136Z" fill="currentColor"/>
</svg>
