<svg width="776" height="310" viewBox="0 0 776 310" fill="none" xmlns="http://www.w3.org/2000/svg">
<g clip-path="url(#clip0_1988_3196)">
<path d="M761.799 97.336C751.911 90.4651 736.944 86.9999 717.327 86.9999H665.95L646.85 192.162H579.545L583.871 168.303H624.414L629.219 141.506L588.698 141.565L593.036 117.812H634.798L640.354 87.0061H555.545L537.413 186.759H506.29L524.545 87.0008H480.212L462.08 186.754H431.762L450.034 87.0008H405.724L386.601 192.163H318.812L323.097 168.304H363.804L368.614 141.659L327.946 141.617L332.261 117.817H374.491L380.012 86.9983H115.732L100.69 170.332L70.734 86.9983H24.7379L-0.0178223 222.998H43.909L58.893 137.367L87.962 222.998H245.392L264.533 117.804H289.154L270.013 222.998H684.242L696.253 156.596L715.679 222.998H759.629L739.497 168.739L744.103 167.734C754.248 165.529 762.16 160.792 767.669 153.691C773.173 146.524 775.978 137.323 775.978 126.272C775.978 113.405 771.337 103.938 761.787 97.3281L761.799 97.336ZM207.166 192.162H139.926L144.269 168.303H186.445L191.226 141.43H149.456L153.479 117.819H220.621L207.153 192.162L207.166 192.162ZM725.586 146.353C721.167 149.487 714.759 151.013 705.996 151.013H697.309L703.973 114.517H710.363C717.639 114.517 722.945 115.699 726.606 118.112C729.463 120.004 732.862 123.747 732.862 130.825C732.852 139.387 728.897 143.987 725.574 146.352L725.586 146.353Z" fill="#83BA3B"/>
</g>
<defs>
<clipPath id="clip0_1988_3196">
<rect width="776" height="136" fill="white" transform="translate(0 87)"/>
</clipPath>
</defs>
</svg>
