<svg width="28" height="28" viewBox="0 0 28 28" fill="none" xmlns="http://www.w3.org/2000/svg">
  <path fill-rule="evenodd" clip-rule="evenodd" d="M2.3335 4.66634C2.3335 3.37768 3.37817 2.33301 4.66683 2.33301H23.3335C24.6222 2.33301 25.6668 3.37768 25.6668 4.66634V23.333C25.6668 24.6217 24.6222 25.6663 23.3335 25.6663H4.66683C3.37817 25.6663 2.3335 24.6217 2.3335 23.333V4.66634ZM16.0836 5.70312L18.0836 6.28973L17.7503 17.0162L21.0836 14.7536L23.3336 15.5078L17.5836 19.2788L17.5003 20.9548L15.1669 20.452L15.189 20.0963L13.7503 19.614L15.2807 18.6222L16.0836 5.70312ZM4.66683 9.97725L12.6668 6.96043L15.3335 8.55264L10.1668 14.7539L13.7502 18.7763L12.6668 21.1227L8.50017 16.0109L8.0835 22.2959L6.0835 21.5417L6.75016 11.1505L6.0835 11.4019L4.66683 9.97725ZM8.66687 13.7476L8.91687 10.3118L12.0002 9.30617L8.66687 13.7476Z" fill="#0D0E0E"/>
</svg>
