<svg xmlns="http://www.w3.org/2000/svg" width="73" height="50" viewBox="0 0 73 50" fill="none">
  <path d="M66.8835 20.8333V41.6667C66.8835 42.2192 66.5652 42.7491 65.9987 43.1398C65.4322 43.5305 64.6638 43.75 63.8626 43.75H9.48763C8.68646 43.75 7.91809 43.5305 7.35158 43.1398C6.78506 42.7491 6.4668 42.2192 6.4668 41.6667V20.8333H66.8835ZM66.8835 16.6667H6.4668V8.33333C6.4668 7.7808 6.78506 7.25089 7.35158 6.86019C7.91809 6.46949 8.68646 6.25 9.48763 6.25H63.8626C64.6638 6.25 65.4322 6.46949 65.9987 6.86019C66.5652 7.25089 66.8835 7.7808 66.8835 8.33333V16.6667ZM45.7376 33.3333V37.5H57.821V33.3333H45.7376Z" fill="#303031"/>
</svg>