<svg width="776" height="310" viewBox="0 0 776 310" fill="none" xmlns="http://www.w3.org/2000/svg">
<path d="M544.458 34.2414C537.655 30.3832 526.478 28.4541 511.414 28.4541C504.125 28.4541 496.35 28.9364 489.061 30.3832C483.716 31.3478 483.23 31.3478 479.829 32.3123C473.026 33.7592 471.568 40.9933 471.568 40.9933L469.138 50.1566C467.681 55.944 471.082 55.944 472.54 55.4617C475.455 54.4971 477.399 53.5326 483.716 52.0857C489.547 50.6389 495.865 49.6743 501.21 49.6743C508.499 49.6743 514.33 50.6389 517.731 52.0857C521.619 53.5326 523.077 56.4262 523.077 60.2845C523.077 61.249 523.077 62.2136 522.591 62.6959C522.105 63.1781 521.619 64.1427 520.161 64.1427C509.471 64.625 502.182 65.5895 492.949 67.0364C484.202 68.4832 475.941 70.4123 469.624 73.306C462.821 76.1996 457.476 80.5401 453.589 85.8452C450.187 91.1503 448.243 97.4199 448.243 105.136C448.243 112.37 450.673 118.158 455.532 122.498C460.392 126.839 467.195 129.25 474.969 129.25C479.829 129.25 483.716 128.768 486.632 128.286C489.547 127.803 492.463 126.839 495.379 125.392C497.808 124.427 500.238 122.981 503.153 121.052C506.069 119.122 507.527 118.158 509.957 116.229L509.471 119.122C508.499 122.498 510.928 125.392 514.33 125.874H514.816C517.245 125.874 525.02 125.874 528.908 125.874H531.338C531.338 125.874 531.337 125.874 531.823 125.874C535.225 125.392 539.112 122.498 539.598 119.122L553.204 61.7313C553.69 60.2845 553.69 58.8376 553.69 56.9085C553.69 54.9794 554.176 53.5326 554.176 52.568C555.148 44.3693 551.747 38.0997 544.458 34.2414ZM511.9 103.207C509.471 104.654 507.041 105.619 504.611 107.065C501.21 108.512 497.808 108.995 494.893 108.995C490.519 108.995 486.632 108.512 484.202 107.065C481.773 105.619 480.801 103.689 480.801 100.314C480.801 96.4553 481.773 93.5617 483.23 91.1503C485.174 88.7389 487.604 87.292 491.005 85.8452C494.407 84.8806 498.294 83.9161 503.153 82.9515C507.527 82.4693 515.788 81.5047 516.76 81.5047C517.731 81.5047 518.703 81.0224 518.217 83.9161C518.217 85.3629 515.788 95.0085 514.33 99.349C514.816 100.796 512.872 102.725 511.9 103.207Z" fill="#00B0F1"/>
<path d="M313.154 29.9012C309.267 29.9012 303.921 33.2772 301.492 37.1354C301.492 37.1354 275.251 81.9873 272.336 86.3278C270.878 88.7392 269.42 87.2923 269.42 86.3278C269.42 85.3632 261.159 37.1354 261.159 37.1354C260.187 33.2772 256.3 29.9012 250.955 29.9012H234.433C230.546 29.9012 228.116 33.2772 229.088 36.6531C229.088 36.6531 241.722 107.548 244.152 123.945C245.61 133.109 244.152 134.556 244.152 134.556L227.63 163.01C225.2 166.868 226.658 169.762 230.546 169.762H249.497C253.384 169.762 258.73 166.868 261.159 163.01L335.021 40.0291C335.021 40.0291 341.824 29.4189 335.507 29.4189C331.133 29.9012 313.154 29.9012 313.154 29.9012Z" fill="#0082E5"/>
<path d="M81.8507 54.9797C76.5055 58.8379 68.7306 61.2493 58.526 61.2493H53.6667C49.7793 61.2493 47.3496 57.8734 47.8355 54.4974L53.6667 30.3835C54.6386 26.5253 58.526 23.1494 62.4135 23.6316H68.2446C75.0477 23.6316 80.3929 24.5962 84.2804 27.0076C87.6819 29.419 89.6256 32.7949 89.6256 38.1C90.1115 45.3341 87.196 50.6392 81.8507 54.9797ZM121.211 18.3266C118.781 13.9861 115.38 10.1278 111.007 7.71645C106.633 4.82278 101.288 2.89367 94.9709 1.92911C89.1397 0.482278 81.8507 0 73.5899 0H35.2013C31.3139 0 27.4264 3.37595 26.4546 6.75189L0.214301 118.64C-0.757561 122.499 1.67209 125.392 5.55954 125.392H24.5109C28.3983 125.392 32.2857 122.499 33.2576 118.64L39.5747 91.6328C40.5466 87.7746 44.434 84.881 48.3215 84.881H53.6667C76.0195 84.881 93.5131 80.0582 106.147 70.8949C118.781 61.7316 125.099 49.6746 125.099 34.724C125.099 28.4544 123.641 22.6671 121.211 18.3266Z" fill="#0082E5"/>
<path d="M416.171 55.4621C410.826 59.3204 403.051 61.2495 392.847 61.2495H388.473C384.586 61.2495 382.156 57.8735 382.642 54.4976L387.987 30.8659C388.959 27.0077 392.846 24.1141 396.734 24.1141H402.565C409.854 24.1141 414.713 25.5609 418.601 27.49C422.002 29.9014 423.946 33.2773 423.946 38.5824C424.432 45.3343 421.516 51.1216 416.171 55.4621ZM456.018 18.809C453.588 14.4685 450.186 10.6103 445.813 8.19887C441.44 5.3052 436.094 3.37609 429.777 2.41153C423.46 1.44698 416.171 0.9647 407.91 0.482422H369.522C365.634 0.482422 361.747 3.85837 360.775 7.23432L335.021 119.123C334.049 122.981 336.478 125.875 340.366 125.875H358.831C362.719 125.875 366.606 122.981 367.578 119.123L373.895 92.1153C374.867 88.257 378.754 84.8811 382.642 85.3634H387.987C410.34 85.3634 427.834 80.5406 440.468 71.3773C453.102 62.214 459.419 50.1571 459.419 35.2065C459.419 28.4546 457.961 23.1495 456.018 18.809Z" fill="#00B0F1"/>
<path d="M210.137 34.2414C203.333 30.3832 192.157 28.4541 177.093 28.4541C169.804 28.4541 162.029 28.9364 154.74 30.3832C149.395 31.3478 148.909 31.3478 145.508 32.3123C138.705 33.7592 137.247 40.9933 137.247 40.9933L134.817 50.1566C133.359 55.944 136.761 55.944 138.219 55.4617C141.134 54.4971 143.078 53.5326 149.395 52.0857C155.226 50.6389 161.543 49.6743 166.889 49.6743C174.178 49.6743 180.009 50.6389 183.41 52.0857C187.298 53.5326 188.756 56.4262 188.756 60.2845C188.756 61.249 188.756 62.2136 188.27 62.6959C187.784 63.6604 187.298 64.1427 185.84 64.1427C175.149 64.625 167.861 65.5895 158.628 67.0364C149.881 68.4832 141.62 70.4123 135.303 73.306C128.5 76.1996 123.155 80.5401 119.267 85.8452C115.866 91.1503 113.922 97.4199 113.922 105.136C113.922 112.37 116.352 118.158 121.211 122.498C126.07 126.839 132.873 129.25 140.648 129.25C145.508 129.25 149.395 128.768 152.311 128.286C155.226 127.803 158.142 126.839 161.057 125.392C163.487 124.427 165.917 122.981 168.832 121.052C171.748 119.122 173.206 118.158 175.635 116.229L175.149 119.122C174.178 122.498 176.607 125.392 180.009 125.874H180.495C182.924 125.874 190.699 125.874 194.587 125.874H197.016C197.016 125.874 197.016 125.874 197.502 125.874C200.904 125.392 204.791 122.498 205.277 119.122L218.883 61.7313C219.369 60.2845 219.369 58.8376 219.369 56.9085C219.369 54.9794 219.855 53.5326 219.855 52.568C220.827 44.3693 216.94 38.0997 210.137 34.2414ZM177.579 102.725C175.149 104.172 172.72 105.136 170.29 106.583C166.889 108.03 163.487 108.512 160.572 108.512C156.198 108.512 152.311 108.03 149.881 106.583C147.451 105.136 146.48 103.207 146.48 99.8313C146.48 95.973 147.451 93.0794 149.395 90.668C151.339 88.2566 153.769 86.8098 157.17 85.3629C160.572 84.3984 164.459 83.4338 169.318 82.4693C173.692 81.987 181.953 81.0224 182.924 81.0224C183.896 81.0224 184.868 80.5401 184.382 83.4338C184.382 84.8806 181.953 94.5262 180.495 98.8667C180.009 100.314 178.551 102.243 177.579 102.725Z" fill="#0082E5"/>
<path d="M608.114 1.44727H591.593C587.705 1.44727 583.818 4.34093 582.846 8.19916V8.68144C582.846 8.68144 582.36 10.1283 581.874 13.0219L559.035 114.783C558.549 117.194 558.063 118.641 558.063 119.123C557.092 122.499 559.521 125.393 562.923 125.875H579.93C583.818 125.875 587.705 122.981 588.677 119.123C588.677 119.123 588.677 119.123 588.677 118.641L613.46 7.71688C614.431 4.34093 612.002 1.44727 608.114 1.44727Z" fill="#00B0F1"/>
<path d="M178.752 287.099C166.067 287.099 160.993 279.803 163.124 267.744L168.807 235.824H157.34L159.573 223.36H171.04L174.49 203.599H189.61L186.16 223.36H201.99L199.758 235.824H183.927L178.549 266.426C177.737 271.291 179.564 273.317 184.333 273.317C187.682 273.317 190.929 273.115 194.278 272.709L192.046 285.376C187.682 286.491 183.318 286.997 178.752 287.099Z" fill="white"/>
<path d="M200.367 285.883L211.428 223.258H226.751L215.69 285.883H200.367Z" fill="white"/>
<path d="M404.743 287.099C392.059 287.099 386.985 279.803 389.116 267.744L394.798 235.824H383.23L385.463 223.36H396.93L400.38 203.599H415.5L412.05 223.36H427.88L425.648 235.824H409.817L404.439 266.426C403.627 271.291 405.454 273.317 410.223 273.317C413.572 273.317 416.819 273.115 420.168 272.709L417.935 285.376C413.673 286.491 409.208 286.997 404.743 287.099Z" fill="white"/>
<path d="M426.257 285.883L437.318 223.258H452.641L441.58 285.883H426.257Z" fill="white"/>
<path d="M271.503 282.64C267.038 285.781 261.66 287.706 255.266 287.706C247.757 287.706 242.277 285.072 239.943 281.525L234.869 310H219.851L235.072 223.562H249.178L247.858 230.452C252.628 224.676 260.036 222.143 266.936 222.143C273.228 222.143 277.896 224.271 281.143 227.412C287.536 233.492 289.566 242.917 287.536 254.671C285.405 266.933 280.027 276.458 271.503 282.64ZM270.995 239.573C269.27 236.837 266.429 234.607 261.761 234.607C249.99 234.607 245.524 245.754 244.002 254.874C242.48 263.994 242.886 274.938 254.658 274.938C259.325 274.938 262.979 272.81 265.617 269.973C269.473 265.919 271.3 260.245 272.315 254.773C273.329 249.301 273.431 243.626 270.995 239.573Z" fill="white"/>
<path d="M337.362 286.998C330.867 286.998 327.924 282.944 328.33 278.182C324.576 283.248 316.559 287.606 307.629 287.606C292.712 287.606 286.623 278.182 288.45 267.947C290.581 255.989 301.033 249.2 313.109 248.288L331.781 246.971L332.491 243.12C333.506 237.243 332.187 233.291 323.662 233.291C316.66 233.291 311.992 236.432 310.673 242.208H295.959C299.308 228.123 311.587 221.84 325.59 221.84C336.347 221.84 344.871 225.184 346.799 234.608C347.713 238.56 347.104 243.019 346.393 247.275L342.334 270.48C341.827 273.419 342.639 274.432 345.176 274.432C345.886 274.432 346.495 274.331 347.104 274.23L345.176 285.275C342.436 286.39 341.015 286.998 337.362 286.998ZM329.853 258.219L313.718 259.435C309.05 259.84 304.077 262.576 303.265 267.643C302.454 272.507 306.107 275.446 310.775 275.446C320.212 275.446 327.722 270.379 329.345 261.157L329.853 258.219Z" fill="white"/>
<path d="M368.82 286.693C358.571 286.693 352.584 281.727 354.715 269.871L366.385 203.498H381.606L370.342 267.338C369.733 270.986 370.139 273.317 375.315 273.317C376.634 273.317 377.04 273.215 377.852 273.215L375.619 285.882C372.473 286.49 371.864 286.693 368.82 286.693Z" fill="white"/>
<path d="M457.613 193.365C457.816 199.952 452.641 205.525 446.045 205.728C443.914 205.829 441.783 205.322 439.855 204.309C439.652 204.208 439.449 204.106 439.246 203.904C407.585 185.359 370.545 175.226 331.172 176.543C290.784 177.861 253.643 191.034 222.895 212.618C222.692 212.72 222.59 212.821 222.387 212.922C222.083 213.024 221.779 213.125 221.474 213.125C220.256 213.125 219.242 212.213 219.242 210.997C219.242 210.592 219.343 210.186 219.546 209.882C219.952 209.578 220.256 209.274 220.662 208.869C254.455 178.671 298.597 159.722 347.51 158.101C384.854 156.885 420.067 165.903 450.611 182.623L451.423 183.13C452.742 183.839 453.859 184.751 454.772 185.866C456.497 187.994 457.512 190.629 457.613 193.365Z" fill="#FFBC00"/>
<path d="M48.8603 238.864L18.6199 285.883H12.1253L0.455322 238.864H6.84845L16.5903 278.992L42.2642 238.864H48.8603Z" fill="#838383"/>
<path d="M57.7902 238.864H64.1833L54.8473 285.883H48.4542L57.7902 238.864ZM59.3123 224.373C59.3123 221.739 61.3419 219.509 64.2848 219.509C66.8217 219.509 68.6483 221.435 68.6483 223.563C68.6483 226.4 66.5173 228.528 63.6759 228.528C61.139 228.629 59.3123 226.603 59.3123 224.373Z" fill="#838383"/>
<path d="M124.867 238.865L115.43 285.884H109.341L110.863 278.486C106.398 283.452 100.106 286.39 92.4956 286.39C80.4197 286.39 71.997 278.892 71.997 266.427C71.997 250.315 83.2611 238.561 98.5842 238.561C107.514 238.561 113.806 242.209 116.444 248.795L118.372 238.966H124.867V238.865ZM114.313 258.726C114.313 249.505 108.631 244.033 98.7872 244.033C87.0158 244.033 78.3901 253.355 78.3901 266.123C78.3901 275.345 84.0729 280.716 93.9162 280.716C105.586 280.716 114.313 271.494 114.313 258.726Z" fill="#838383"/>
</svg>
