<svg width="28" height="28" viewBox="0 0 28 28" fill="none" xmlns="http://www.w3.org/2000/svg">
  <path fill-rule="evenodd" clip-rule="evenodd" d="M4.66634 2.33301C3.37768 2.33301 2.33301 3.37768 2.33301 4.66634V23.333C2.33301 24.6217 3.37768 25.6663 4.66634 25.6663H23.333C24.6217 25.6663 25.6663 24.6217 25.6663 23.333V4.66634C25.6663 3.37768 24.6217 2.33301 23.333 2.33301H4.66634ZM12.1962 5.69074L16.9565 5.66667C16.9565 5.66667 16.0097 8.40269 15.9797 10.1838L13.0826 10.1982C13.0826 10.1982 12.9715 7.9872 12.1601 5.74733L12.1962 5.69074ZM13.0655 11.0757L16.0706 11.0614L16.0986 12.5531H13.1074L13.0655 11.0757ZM5.59962 12.4872L5.62308 17.3723L5.67823 17.4094C7.86086 16.5767 9.90358 16.5774 9.90358 16.5774L9.87549 13.4466C8.13993 13.4159 5.59962 12.4872 5.59962 12.4872ZM10.771 13.4177L12.1701 13.389L12.1981 16.5773H10.827L10.771 13.4177ZM14.4368 14.035L13.5334 15.0242L14.495 16.0248L15.3852 14.9895L14.4368 14.035ZM14.8408 17.6314L16.9793 15.4512L17.9018 16.5786L15.8891 18.6785L14.8408 17.6314ZM22.3997 19.6859L19.0594 23.1665C19.0594 23.1665 17.8368 20.5481 16.6274 19.2703L18.6604 17.1522C18.6604 17.1522 20.2664 18.6306 22.3861 19.6197L22.3997 19.6859Z" fill="#0D0E0E"/>
</svg>
