<svg width="776" height="310" viewBox="0 0 776 310" fill="none" xmlns="http://www.w3.org/2000/svg">
<path d="M617.696 49.8858L681.845 38.4961V287H617.696V49.8858ZM711.851 49.8858V285.965H776V37.4606L711.851 49.8858ZM525.611 287H589.76V104.764H525.611V287ZM98.2933 130.65C90.016 129.614 71.392 128.579 71.392 112.012C71.392 91.3032 98.2933 91.3032 108.64 91.3032C126.229 91.3032 150.027 96.4803 166.581 101.657C166.581 101.657 175.893 104.764 184.171 107.87H185.205V51.9567H184.171C163.477 44.7087 140.715 38.4961 98.2933 38.4961C25.8667 38.4961 0 80.9488 0 117.189C0 137.898 9.312 187.598 92.0853 192.776C99.328 192.776 117.952 193.811 117.952 211.413C117.952 225.909 102.432 234.193 76.5653 234.193C48.6293 234.193 20.6933 226.945 4.13867 219.697V277.681C28.9707 283.894 56.9067 287 90.016 287C161.408 287 193.483 246.618 193.483 207.272C193.483 163.783 158.304 134.791 98.2933 130.65ZM488.363 102.693C428.352 104.764 398.347 131.685 398.347 184.492V287H463.531V204.165C463.531 172.067 467.669 158.606 505.952 157.571V103.728C499.744 101.657 488.363 102.693 488.363 102.693ZM313.504 104.764C312.469 108.906 302.123 137.898 276.256 167.925V38.4961L210.037 51.9567V287H276.256V214.52C295.915 243.512 305.227 287 305.227 287H384.896C376.619 253.866 342.475 193.811 342.475 193.811C373.515 154.465 386.965 112.012 389.035 105.799H313.504V104.764ZM557.685 88.1969C575.275 88.1969 589.76 73.7008 589.76 56.0984C589.76 38.4961 575.275 24 557.685 24C540.096 24 525.611 38.4961 525.611 56.0984C525.611 73.7008 540.096 88.1969 557.685 88.1969Z" fill="#CF1992"/>
</svg>
