<svg width="86" height="26" viewBox="0 0 86 26" fill="none" xmlns="http://www.w3.org/2000/svg">
<path d="M12.6089 0.625977C6.01206 0.625977 0.632673 5.68247 0.123047 12.1232L6.83313 14.8915C7.39938 14.496 8.07888 14.27 8.81501 14.27H9.01319L12.0143 9.97626V9.91976C12.0143 7.32089 14.1378 5.20225 16.7425 5.20225C19.3473 5.20225 21.4707 7.32089 21.4707 9.91976C21.4707 12.5186 19.3473 14.6373 16.7425 14.6373H16.6293L12.3824 17.6599V17.8294C12.3824 19.7785 10.7969 21.3604 8.84332 21.3604C7.11625 21.3604 5.70062 20.1458 5.36087 18.5073L0.547735 16.5299C2.0483 21.7842 6.86144 25.626 12.6089 25.626C19.5172 25.626 25.123 20.0328 25.123 13.1401C25.123 6.2192 19.5172 0.625977 12.6089 0.625977Z" fill="white"/>
<path d="M7.96444 19.5808L6.43556 18.9593C6.71869 19.5243 7.17169 20.0045 7.79457 20.2587C9.15357 20.8237 10.7108 20.174 11.277 18.8181C11.5601 18.1683 11.5601 17.4339 11.277 16.7842C10.9939 16.1344 10.4843 15.626 9.83307 15.3435C9.18188 15.061 8.47407 15.0892 7.8795 15.3152L9.46501 15.9649C10.4559 16.3887 10.9373 17.5186 10.5126 18.5073C10.1162 19.5243 8.95538 20.0045 7.96444 19.5808Z" fill="white"/>
<path fill-rule="evenodd" clip-rule="evenodd" d="M19.885 9.89145C19.885 8.16829 18.4694 6.75586 16.7423 6.75586C15.0153 6.75586 13.5996 8.16829 13.5996 9.89145C13.5996 11.6146 15.0153 13.0553 16.7423 13.0553C18.4694 13.0553 19.885 11.6429 19.885 9.89145ZM14.3641 9.89145C14.3641 8.59202 15.4117 7.51857 16.7423 7.51857C18.0447 7.51857 19.1206 8.56377 19.1206 9.89145C19.1206 11.1909 18.073 12.2361 16.7423 12.2361C15.44 12.2643 14.3641 11.1909 14.3641 9.89145Z" fill="white"/>
<path d="M37.6812 10.1686L38.5637 8.69964C37.8871 8.21941 36.7105 7.76743 35.2691 7.71094C33.1805 7.71094 31.7097 8.72789 31.7097 10.4793C31.7097 12.033 32.7981 12.7109 34.3866 13.2194L34.6353 13.2987C35.8978 13.7002 36.6516 13.94 36.6516 14.6036C36.6516 15.2251 36.0927 15.6488 34.8867 15.6488C34.0042 15.6488 33.004 15.3946 32.1804 14.9708L31.5332 16.6092C32.5334 17.2025 33.8865 17.485 34.9749 17.485C37.24 17.485 38.799 16.4115 38.799 14.4906C38.799 13.1064 37.8871 12.4567 36.2986 11.92C36.057 11.8365 35.8281 11.7621 35.6143 11.6926C34.5263 11.3391 33.8277 11.1121 33.8277 10.4511C33.8277 9.80133 34.3866 9.4341 35.2985 9.4341C36.0927 9.4341 37.0046 9.71659 37.6812 10.1686Z" fill="white"/>
<path d="M45.3603 17.3443V9.63241H48.3313V7.9375H40.3301V9.63241H43.3011V17.3443H45.3603Z" fill="white"/>
<path d="M52.6548 11.7228V9.63241H57.2144V7.9375H50.5957V17.316H57.2144V15.6211H52.6548V13.4177H56.5966V11.7228H52.6548Z" fill="white"/>
<path fill-rule="evenodd" clip-rule="evenodd" d="M61.1572 17.3443L61.8043 15.5081H65.599L66.2756 17.3443H68.5112L64.7459 7.9375H62.6868L59.0098 17.3443H61.1572ZM62.3926 13.9262L63.7164 10.1691L65.0989 13.9262H62.3926Z" fill="white"/>
<path d="M76.3925 17.09L79.0694 11.5816V17.3443H81.0403V7.9375H79.0694L75.8925 14.7454L72.5978 7.9375H70.627V17.3725H72.5978V11.6381L75.2453 17.09H76.3925Z" fill="white"/>
<path fill-rule="evenodd" clip-rule="evenodd" d="M84.1305 8.81209C84.1305 8.61435 84.0128 8.44485 83.6598 8.44485H83.1891V9.74429H83.3951V9.23581H83.6892L83.954 9.74429H84.2187L83.8951 9.17932C84.0128 9.09457 84.1305 8.98158 84.1305 8.81209ZM83.6598 9.03807H83.4245V8.64259H83.6598C83.8363 8.64259 83.8951 8.72734 83.8951 8.84033C83.8951 8.95333 83.8069 9.03807 83.6598 9.03807Z" fill="white"/>
<path fill-rule="evenodd" clip-rule="evenodd" d="M85.0129 9.12282C85.0129 9.94203 84.3952 10.4223 83.6598 10.4223C82.9244 10.4223 82.3066 9.91378 82.3066 9.12282C82.3066 8.30361 82.9538 7.82339 83.6598 7.82339C84.3658 7.79514 85.0129 8.30361 85.0129 9.12282ZM82.5126 9.12282C82.5126 9.80079 83.0126 10.2245 83.6304 10.2245C84.2481 10.2245 84.7482 9.80079 84.7482 9.12282C84.7482 8.44485 84.2481 8.02112 83.6304 8.02112C83.0126 8.02112 82.5126 8.44485 82.5126 9.12282Z" fill="white"/>
</svg>
