<svg xmlns="http://www.w3.org/2000/svg" fill="none" viewBox="0 0 48 48">
  <g clip-path="url(#a)">
    <path fill="currentColor" fill-rule="evenodd" d="M32.025 6.74A9.672 9.672 0 0 1 35.814 6v.003a9.863 9.863 0 0 1 3.855.7 9.977 9.977 0 0 1 3.295 2.153 10.13 10.13 0 0 1 2.222 3.27 10.25 10.25 0 0 1 .09 7.775 9.844 9.844 0 0 1-2.164 3.292 9.775 9.775 0 0 1-3.258 2.176 9.669 9.669 0 0 1-3.842.708h-.226l-9.163 6.616a6.238 6.238 0 0 1-.48 2.876 7.34 7.34 0 0 1-3.903 3.873 7.191 7.191 0 0 1-5.461.04 7.006 7.006 0 0 1-2.814-2.017 7.167 7.167 0 0 1-1.526-3.131l-8.712-3.602a2.767 2.767 0 0 1-1.255-1.041A2.894 2.894 0 0 1 2 28.102v-2.677c0-.464.111-.921.323-1.33.212-.41.518-.76.892-1.02a2.675 2.675 0 0 1 2.57-.275l9.547 3.996a5.954 5.954 0 0 1 4.34-1.235l6.27-9.29v-.261c-.011-1.32.237-2.627.728-3.845a10.03 10.03 0 0 1 2.137-3.259 9.777 9.777 0 0 1 3.218-2.167Zm-8.762 30.158a5.484 5.484 0 0 0 1.204-1.814l.143.029a5.83 5.83 0 0 0 .182-3.191 5.712 5.712 0 0 0-4.283-4.324 5.6 5.6 0 0 0-3.134.18l3.375 1.467c.902.47 1.6 1.273 1.952 2.25.348.97.324 2.04-.069 2.992a4.087 4.087 0 0 1-2.054 2.153 4.01 4.01 0 0 1-2.948.17l-3.234-1.524a5.25 5.25 0 0 0 2.838 2.674c.66.307 1.372.476 2.096.496.723.025 1.444-.1 2.12-.368a5.385 5.385 0 0 0 1.812-1.19Zm8.927-15.382a6.461 6.461 0 0 0 3.624 1.113 6.251 6.251 0 0 0 4.675-1.876 6.34 6.34 0 0 0 1.41-2.168 6.494 6.494 0 0 0 .44-2.572 6.7 6.7 0 0 0-1.1-3.675 6.556 6.556 0 0 0-2.925-2.436 6.441 6.441 0 0 0-3.763-.374 6.56 6.56 0 0 0-3.349 1.807c-.91.92-1.532 2.1-1.787 3.386a6.7 6.7 0 0 0 .371 3.825 6.598 6.598 0 0 0 2.404 2.97Zm7.71-6.15c.09.539.075 1.091-.044 1.624a4.202 4.202 0 0 1-1.829 2.59 3.981 3.981 0 0 1-3.068.513 3.958 3.958 0 0 1-1.446-.652 4.088 4.088 0 0 1-1.091-1.175 4.217 4.217 0 0 1-.568-1.517 4.263 4.263 0 0 1 .044-1.626 4.205 4.205 0 0 1 1.83-2.59 3.984 3.984 0 0 1 3.07-.512 3.96 3.96 0 0 1 1.446.652c.435.314.805.713 1.09 1.175.284.462.477.978.566 1.517Z" clip-rule="evenodd"/>
  </g>
  <defs>
    <clipPath id="a">
      <path fill="currentColor" d="M0 0h44v34H0z" transform="translate(2 6)"/>
    </clipPath>
  </defs>
</svg>