<svg xmlns="http://www.w3.org/2000/svg" fill="none" viewBox="0 0 48 48">
  <path fill="currentColor" d="M4.604 22.746c4.092-2.45 8.66-4.494 12.928-6.549 7.343-3.366 14.715-6.673 22.16-9.752C41.143 5.92 43.746 5.407 44 7.74c-.14 3.303-.715 6.586-1.11 9.87-1 7.22-2.157 14.415-3.285 21.61-.389 2.398-3.152 3.639-4.92 2.105-4.25-3.12-8.531-6.208-12.726-9.399-1.374-1.517-.1-3.696 1.128-4.78 3.5-3.748 7.21-6.932 10.527-10.873.895-2.348-1.748-.37-2.62.237-4.791 3.587-9.465 7.394-14.517 10.548-2.58 1.543-5.587.224-8.166-.637-2.312-1.04-5.7-2.089-3.707-3.675Z"/>
</svg>