<svg width="28" height="28" viewBox="0 0 28 28" fill="none" xmlns="http://www.w3.org/2000/svg">
  <path d="M13.7456 4.20518C13.7945 3.814 13.4852 3.46852 13.0925 3.50228C8.92868 3.86017 5.45659 6.63899 4.09039 10.4245C3.95569 10.7978 4.21452 11.1868 4.60824 11.236L9.5565 11.8547C9.82495 11.8882 10.0823 11.749 10.2311 11.523C10.7923 10.6702 11.6346 10.0188 12.6262 9.70084C12.8899 9.61629 13.0964 9.39809 13.1308 9.12338L13.7456 4.20518Z" fill="#0D0E0E"/>
  <path d="M16.4555 10.2065C16.2264 10.0584 16.0846 9.79926 16.1185 9.5286L16.7358 4.59042C16.7849 4.19768 17.1722 3.93888 17.545 4.07172C21.3167 5.41557 24.0977 8.84716 24.4971 12.9755C24.5353 13.3705 24.1887 13.684 23.7949 13.6348L18.8503 13.0166C18.5814 12.983 18.3661 12.7841 18.2776 12.528C17.9452 11.5652 17.2964 10.7499 16.4555 10.2065Z" fill="#0D0E0E"/>
  <path d="M14.9518 18.8603C14.9857 18.5892 15.1875 18.3728 15.4464 18.2858C16.4597 17.9454 17.3125 17.2554 17.8615 16.3592C18.0073 16.1211 18.2716 15.9718 18.5487 16.0065L23.4582 16.6203C23.848 16.669 24.1067 17.0514 23.9793 17.423C22.6611 21.2677 19.1821 24.109 14.9919 24.4973C14.5978 24.5339 14.2858 24.1877 14.3349 23.7949L14.9518 18.8603Z" fill="#0D0E0E"/>
  <path d="M9.11116 14.8266C9.38866 14.8613 9.60818 15.0716 9.69078 15.3387C10.0133 16.3822 10.7038 17.264 11.6107 17.8327C11.8449 17.9795 11.9908 18.2416 11.9565 18.5159L11.3412 23.4377C11.2923 23.8288 10.9078 24.0875 10.5357 23.9577C6.67919 22.613 3.84358 19.0905 3.50202 14.8635C3.47037 14.4718 3.81526 14.1644 4.20521 14.2132L9.11116 14.8266Z" fill="#0D0E0E"/>
</svg>
