<svg xmlns="http://www.w3.org/2000/svg" fill="none" viewBox="0 0 48 48">
  <path fill="currentColor" d="M38.928 13.908c-3.841 0-6.966-3.075-6.966-6.853 0-.583-.48-1.055-1.072-1.055h-5.742c-.592 0-1.072.472-1.072 1.055v23.158c0 2.222-1.837 4.029-4.095 4.029s-4.095-1.807-4.095-4.029c0-2.221 1.837-4.029 4.095-4.029.592 0 1.072-.472 1.072-1.054v-5.65c0-.582-.48-1.055-1.072-1.055C13.375 18.426 8 23.714 8 30.213 8 36.713 13.375 42 19.98 42c6.607 0 11.982-5.287 11.982-11.787v-10.25a14.94 14.94 0 0 0 6.966 1.703c.592 0 1.072-.473 1.072-1.055v-5.649c0-.582-.48-1.054-1.072-1.054Z"/>
</svg>