<svg xmlns="http://www.w3.org/2000/svg" fill="none" viewBox="0 0 48 48">
  <path fill="currentColor" d="M44.325 11.312a16.773 16.773 0 0 1-4.804 1.316A8.392 8.392 0 0 0 43.2 8a16.717 16.717 0 0 1-5.312 2.03 8.364 8.364 0 0 0-14.252 7.628 23.748 23.748 0 0 1-17.24-8.74 8.336 8.336 0 0 0-1.132 4.206c0 2.9 1.476 5.462 3.72 6.962a8.338 8.338 0 0 1-3.788-1.046v.104a8.37 8.37 0 0 0 6.71 8.202 8.421 8.421 0 0 1-3.78.144 8.37 8.37 0 0 0 7.814 5.81 16.79 16.79 0 0 1-12.382 3.464 23.661 23.661 0 0 0 12.82 3.76c15.386 0 23.8-12.746 23.8-23.8 0-.36-.01-.724-.026-1.08a16.994 16.994 0 0 0 4.174-4.33l-.002-.002Z"/>
</svg>