<svg width="776" height="310" viewBox="0 0 776 310" fill="none" xmlns="http://www.w3.org/2000/svg">
<path d="M0 13.7451H282.509V155H0V13.7451Z" fill="#0055BB"/>
<path d="M0 155H282.509V296.254H0V155Z" fill="#FFD500"/>
<path d="M315.47 144V81H344.09C364.7 81 378.83 93.42 378.83 112.5C378.83 131.58 364.7 144 344.09 144H315.47ZM330.05 132.03H343.37C355.88 132.03 364.07 124.56 364.07 112.5C364.07 100.44 355.88 92.97 343.37 92.97H330.05V132.03Z" fill="white"/>
<path d="M411.876 144.72C396.486 144.72 385.236 134.37 385.236 119.79C385.236 105.21 396.486 94.86 411.876 94.86C427.266 94.86 438.426 105.21 438.426 119.79C438.426 134.37 427.266 144.72 411.876 144.72ZM411.876 133.2C418.896 133.2 424.206 128.16 424.206 119.79C424.206 111.42 418.896 106.38 411.876 106.38C404.856 106.38 399.456 111.42 399.456 119.79C399.456 128.16 404.856 133.2 411.876 133.2Z" fill="white"/>
<path d="M477.24 94.86C488.67 94.86 497.31 101.52 497.31 116.28V144H483.27V118.44C483.27 110.61 479.67 107.01 473.46 107.01C466.71 107.01 461.85 111.15 461.85 120.06V144H447.81V95.58H461.22V101.25C465 97.11 470.67 94.86 477.24 94.86Z" fill="white"/>
<path d="M529.567 94.86C544.327 94.86 552.877 101.7 552.877 116.37V144H539.737V137.97C537.127 142.38 532.087 144.72 524.977 144.72C513.637 144.72 506.887 138.42 506.887 130.05C506.887 121.5 512.917 115.56 527.677 115.56H538.837C538.837 109.53 535.237 106.02 527.677 106.02C522.547 106.02 517.237 107.73 513.727 110.52L508.687 100.71C513.997 96.93 521.827 94.86 529.567 94.86ZM528.487 135.27C533.167 135.27 537.217 133.11 538.837 128.7V123.75H529.207C522.637 123.75 520.567 126.18 520.567 129.42C520.567 132.93 523.537 135.27 528.487 135.27Z" fill="white"/>
<path d="M593.034 131.76L596.814 141.66C593.934 143.73 589.704 144.72 585.384 144.72C573.954 144.72 567.294 138.87 567.294 127.35V107.46H559.824V96.66H567.294V84.87H581.334V96.66H593.394V107.46H581.334V127.17C581.334 131.31 583.584 133.56 587.364 133.56C589.434 133.56 591.504 132.93 593.034 131.76Z" fill="white"/>
<path d="M650.631 119.97C650.631 121.05 650.451 122.58 650.361 123.75H613.731C615.081 129.78 620.211 133.47 627.591 133.47C632.721 133.47 636.411 131.94 639.741 128.79L647.211 136.89C642.711 142.02 635.961 144.72 627.231 144.72C610.491 144.72 599.601 134.19 599.601 119.79C599.601 105.3 610.671 94.86 625.431 94.86C639.651 94.86 650.631 104.4 650.631 119.97ZM625.521 105.48C619.131 105.48 614.541 109.35 613.551 115.56H637.401C636.411 109.44 631.821 105.48 625.521 105.48Z" fill="white"/>
<path d="M712.917 131.76L716.697 141.66C713.817 143.73 709.587 144.72 705.267 144.72C693.837 144.72 687.177 138.87 687.177 127.35V107.46H679.707V96.66H687.177V84.87H701.216V96.66H713.276V107.46H701.216V127.17C701.216 131.31 703.466 133.56 707.246 133.56C709.316 133.56 711.387 132.93 712.917 131.76Z" fill="white"/>
<path d="M746.124 144.72C730.734 144.72 719.484 134.37 719.484 119.79C719.484 105.21 730.734 94.86 746.124 94.86C761.514 94.86 772.674 105.21 772.674 119.79C772.674 134.37 761.514 144.72 746.124 144.72ZM746.124 133.2C753.144 133.2 758.454 128.16 758.454 119.79C758.454 111.42 753.144 106.38 746.124 106.38C739.104 106.38 733.704 111.42 733.704 119.79C733.704 128.16 739.104 133.2 746.124 133.2Z" fill="white"/>
<path d="M343.46 231.08C325.55 231.08 314.93 220.82 314.93 202.28V167H329.51V201.74C329.51 213.71 334.73 218.66 343.55 218.66C352.46 218.66 357.59 213.71 357.59 201.74V167H371.99V202.28C371.99 220.82 361.37 231.08 343.46 231.08Z" fill="white"/>
<path d="M421.498 230L406.198 211.01L399.448 217.67V230H385.408V163.22H399.448V201.02L419.968 181.58H436.708L416.548 202.1L438.508 230H421.498Z" fill="white"/>
<path d="M457.88 187.97C461.3 183.29 467.06 180.86 474.53 180.86V193.82C473.36 193.73 472.46 193.64 471.38 193.64C463.64 193.64 458.51 197.87 458.51 207.14V230H444.47V181.58H457.88V187.97Z" fill="white"/>
<path d="M502.145 180.86C516.905 180.86 525.455 187.7 525.455 202.37V230H512.315V223.97C509.705 228.38 504.665 230.72 497.555 230.72C486.215 230.72 479.465 224.42 479.465 216.05C479.465 207.5 485.495 201.56 500.255 201.56H511.415C511.415 195.53 507.815 192.02 500.255 192.02C495.125 192.02 489.815 193.73 486.305 196.52L481.265 186.71C486.575 182.93 494.405 180.86 502.145 180.86ZM501.065 221.27C505.745 221.27 509.795 219.11 511.415 214.7V209.75H501.785C495.215 209.75 493.145 212.18 493.145 215.42C493.145 218.93 496.115 221.27 501.065 221.27Z" fill="white"/>
<path d="M545.182 174.83C539.962 174.83 536.452 171.41 536.452 167C536.452 162.59 539.962 159.17 545.182 159.17C550.402 159.17 553.912 162.41 553.912 166.73C553.912 171.41 550.402 174.83 545.182 174.83ZM538.162 230V181.58H552.202V230H538.162Z" fill="white"/>
<path d="M594.662 180.86C606.092 180.86 614.732 187.52 614.732 202.28V230H600.692V204.44C600.692 196.61 597.092 193.01 590.882 193.01C584.132 193.01 579.272 197.15 579.272 206.06V230H565.232V181.58H578.642V187.25C582.422 183.11 588.092 180.86 594.662 180.86Z" fill="white"/>
<path d="M675.416 205.97C675.416 207.05 675.236 208.58 675.146 209.75H638.516C639.866 215.78 644.996 219.47 652.376 219.47C657.506 219.47 661.196 217.94 664.526 214.79L671.996 222.89C667.496 228.02 660.746 230.72 652.016 230.72C635.276 230.72 624.386 220.19 624.386 205.79C624.386 191.3 635.456 180.86 650.216 180.86C664.436 180.86 675.416 190.4 675.416 205.97ZM650.306 191.48C643.916 191.48 639.326 195.35 638.336 201.56H662.186C661.196 195.44 656.606 191.48 650.306 191.48Z" fill="white"/>
</svg>
